<svg width="240" height="181" viewBox="0 0 240 181" fill="none" xmlns="http://www.w3.org/2000/svg">
<path d="M0 73.1969C0 114.087 43.95 94.6769 43.95 138.787C43.95 174.267 102.83 180.007 139.17 180.007C209.85 180.007 187.62 135.177 200.71 124.457C216.65 111.417 240 140.247 240 117.737C240 79.0469 174.18 73.1069 197.27 51.0369C220.36 28.9669 214.01 0.166915 154.35 0.00691535C75.68 -0.193085 59 3.78691 43.95 32.7169C28.9 61.6469 0 47.9669 0 73.1969Z" fill="#E8FFEC"/>
<path d="M159.45 133.437C160.85 132.377 161.88 130.867 162.37 129.187L171.92 95.5569C172.28 94.2769 172.02 92.8869 171.22 91.8269C170.42 90.7669 169.15 90.1369 167.82 90.1369H88.2301L88.0401 89.6769C87.3001 87.9169 86.0701 86.4169 84.4801 85.3569C82.8901 84.2969 81.0401 83.7269 79.1301 83.7169H65.9201C64.6401 83.7169 63.4401 84.2169 62.5401 85.1169C61.6501 86.0069 61.1401 87.2369 61.1401 88.4969C61.1401 89.7769 61.6401 90.9769 62.5401 91.8769C63.4401 92.7769 64.6401 93.2769 65.9201 93.2769H79.2701L85.9401 141.457C86.3801 144.497 88.2601 147.177 90.9601 148.627L91.5001 148.917L91.3201 149.507C90.9801 150.647 90.8001 151.827 90.8001 153.017C90.8001 156.447 92.2601 159.737 94.7901 162.047C97.3301 164.357 100.73 165.497 104.16 165.177C107.58 164.857 110.72 163.097 112.78 160.347C114.84 157.607 115.65 154.097 115.01 150.727L114.84 149.837H142.11L141.94 150.727C141.25 154.327 142.21 158.017 144.56 160.837C146.89 163.627 150.3 165.227 153.94 165.227C153.97 165.227 154 165.227 154.04 165.227C157.71 165.197 161.14 163.547 163.44 160.687C165.75 157.837 166.64 154.137 165.9 150.537L165.76 149.837L166.45 149.657C167.96 149.267 169.18 148.157 169.72 146.697C170.26 145.237 170.05 143.597 169.16 142.317C168.27 141.037 166.81 140.277 165.25 140.267H95.4301L94.7101 135.087H154.57C156.32 135.087 158.05 134.497 159.45 133.437ZM111 159.207C109.11 161.697 106.13 163.177 103.01 163.177C102.99 163.177 102.96 163.177 102.94 163.177C99.7901 163.157 96.8001 161.627 94.9401 159.087C93.0801 156.547 92.5101 153.237 93.4301 150.227L93.6201 149.597L94.2701 149.697C94.7101 149.767 95.1501 149.807 95.5801 149.817H98.2301V153.057C98.2301 154.757 99.1501 156.347 100.62 157.197C102.09 158.047 103.93 158.047 105.4 157.197C106.87 156.347 107.79 154.757 107.79 153.057V149.817H112.5L112.66 150.357C113.53 153.377 112.92 156.687 111.02 159.197L111 159.207ZM163.96 153.007C163.96 155.897 162.72 158.647 160.55 160.547C158.71 162.157 156.36 163.027 153.95 163.027C153.51 163.027 153.07 162.997 152.62 162.937C149.76 162.557 147.2 160.957 145.6 158.547C144 156.137 143.53 153.157 144.29 150.377L144.44 149.827H149.04V153.067C149.04 154.767 149.96 156.357 151.43 157.207C152.9 158.057 154.74 158.057 156.21 157.207C157.68 156.357 158.6 154.767 158.6 153.067V149.827H163.41L163.57 150.367C163.82 151.227 163.95 152.107 163.96 152.997V153.007ZM95.5401 142.457H165.23C166.66 142.457 167.82 143.617 167.82 145.047C167.82 146.477 166.66 147.637 165.23 147.637H157.51C157.22 147.637 156.94 147.757 156.74 147.957C156.53 148.167 156.42 148.437 156.42 148.727V153.057C156.42 154.487 155.26 155.647 153.83 155.647C152.4 155.647 151.24 154.487 151.24 153.057V148.727C151.24 148.437 151.13 148.157 150.92 147.957C150.71 147.747 150.44 147.637 150.15 147.637H106.7C106.41 147.637 106.13 147.757 105.93 147.957C105.72 148.167 105.61 148.437 105.61 148.727V153.057C105.61 154.487 104.45 155.647 103.02 155.647C101.59 155.647 100.43 154.487 100.43 153.057V148.727C100.43 148.437 100.32 148.157 100.11 147.957C99.9101 147.757 99.6301 147.637 99.3401 147.637H95.5801C93.7701 147.637 92.0201 146.967 90.6501 145.787C89.2801 144.597 88.3901 142.957 88.1301 141.157L81.4701 93.0669C81.3901 92.5169 81.1101 92.0069 80.6901 91.6369C80.2701 91.2669 79.7401 91.0769 79.1601 91.0769H65.9401C64.5101 91.0769 63.3501 89.9169 63.3501 88.4869C63.3401 87.7969 63.6201 87.1169 64.1301 86.6369C64.6101 86.1569 65.2401 85.9069 65.9501 85.8969H79.1601C80.9701 85.8969 82.7301 86.5669 84.0901 87.7469C85.4601 88.9369 86.3501 90.5769 86.6101 92.3769L93.2701 140.467C93.3501 141.017 93.6301 141.527 94.0501 141.897C94.4701 142.257 95.0101 142.457 95.5701 142.457H95.5401ZM94.3901 132.907L88.7701 92.3269H167.81C168.46 92.3269 169.07 92.6369 169.46 93.1469C169.85 93.6669 169.98 94.3369 169.8 94.9569L160.25 128.597C159.9 129.827 159.14 130.927 158.12 131.697C157.1 132.467 155.83 132.897 154.55 132.897H94.3801L94.3901 132.907Z" fill="#2F2F2F"/>
<path d="M154.56 131.397H95.7L90.5 93.8169H167.82C168 93.8169 168.17 93.8969 168.28 94.0469C168.39 94.1869 168.42 94.3769 168.37 94.5469L158.82 128.177C158.56 129.097 157.99 129.917 157.23 130.497C156.47 131.077 155.52 131.387 154.57 131.397H154.56Z" fill="#FFE8E8"/>
<path d="M130.08 117.817C139.706 117.817 147.51 110.013 147.51 100.387C147.51 90.7606 139.706 82.9569 130.08 82.9569C120.454 82.9569 112.65 90.7606 112.65 100.387C112.65 110.013 120.454 117.817 130.08 117.817Z" fill="#1C714B"/>
<path d="M130.01 109.787C129.46 109.787 129.01 109.337 129.01 108.787V91.9869C129.01 91.4369 129.46 90.9869 130.01 90.9869C130.56 90.9869 131.01 91.4369 131.01 91.9869V108.787C131.01 109.337 130.56 109.787 130.01 109.787Z" fill="white"/>
<path d="M138.48 101.757H121.68C121.13 101.757 120.68 101.307 120.68 100.757C120.68 100.207 121.13 99.7569 121.68 99.7569H138.48C139.03 99.7569 139.48 100.207 139.48 100.757C139.48 101.307 139.03 101.757 138.48 101.757Z" fill="white"/>
<path d="M81.7201 19.5369C79.8701 21.3869 78.8501 23.8469 78.8501 26.4669C78.8501 29.0869 79.8701 31.5469 81.7201 33.3969C83.6301 35.3069 86.1401 36.2669 88.6501 36.2669C91.1601 36.2669 93.6701 35.3069 95.5801 33.3969C97.4301 31.5469 98.4501 29.0869 98.4501 26.4669C98.4501 23.8469 97.4301 21.3869 95.5801 19.5369C91.7601 15.7169 85.5401 15.7169 81.7201 19.5369ZM95.2301 33.0469C91.6001 36.6769 85.6901 36.6769 82.0601 33.0469C80.3001 31.2869 79.3301 28.9469 79.3301 26.4669C79.3301 23.9869 80.3001 21.6369 82.0601 19.8869C83.8801 18.0669 86.2601 17.1669 88.6401 17.1669C91.0201 17.1669 93.4101 18.0769 95.2201 19.8869C96.9801 21.6469 97.9501 23.9869 97.9501 26.4669C97.9501 28.9469 96.9801 31.2969 95.2201 33.0469H95.2301Z" fill="#2F2F2F"/>
<path d="M95.9298 19.1869C91.9198 15.1669 85.3798 15.1669 81.3598 19.1869C79.4098 21.1369 78.3398 23.7169 78.3398 26.4669C78.3398 29.2169 79.4098 31.8069 81.3598 33.7469C83.2998 35.6869 85.8898 36.7569 88.6398 36.7569C91.3898 36.7569 93.9798 35.6869 95.9198 33.7469C97.8698 31.7969 98.9398 29.2169 98.9398 26.4669C98.9398 23.7169 97.8698 21.1269 95.9198 19.1869H95.9298ZM94.8798 32.6969C93.2198 34.3569 91.0098 35.2769 88.6498 35.2769C86.2898 35.2769 84.0798 34.3569 82.4198 32.6969C80.7598 31.0369 79.8398 28.8169 79.8398 26.4669C79.8398 24.1169 80.7598 21.8969 82.4198 20.2369C84.0798 18.5769 86.2898 17.6569 88.6498 17.6569C91.0098 17.6569 93.2198 18.5769 94.8798 20.2369C96.5398 21.8969 97.4598 24.1169 97.4598 26.4669C97.4598 28.8169 96.5398 31.0369 94.8798 32.6969Z" fill="#2F2F2F"/>
<path d="M180.07 28.2169L178.54 27.4069L179.82 24.9769C179.99 24.6469 179.87 24.2469 179.54 24.0669L171.22 19.6869C170.89 19.5169 170.49 19.6369 170.31 19.9669L169.03 22.3969L167.49 21.5869C167.08 21.3669 166.6 21.3069 166.14 21.4169C165.54 21.5569 165.03 21.9569 164.74 22.5069L155.42 40.2069C155.22 40.5969 155.13 41.0269 155.18 41.4269C155.24 42.1069 155.63 42.6869 156.22 42.9969L157.76 43.8069L156.48 46.2369C156.31 46.5669 156.43 46.9669 156.76 47.1469L165.08 51.5269C165.41 51.6969 165.81 51.5769 165.99 51.2469L167.27 48.8169L168.8 49.6269C169.21 49.8469 169.69 49.9069 170.18 49.7969C170.18 49.7969 170.19 49.7969 170.2 49.7969C170.2 49.7969 170.2 49.7969 170.21 49.7969C170.21 49.7969 170.22 49.7969 170.23 49.7969C170.8 49.6369 171.29 49.2469 171.56 48.7169L180.88 31.0169C181.42 29.9969 181.06 28.7369 180.08 28.2269L180.07 28.2169ZM165.92 23.1369C166.03 22.9269 166.22 22.7769 166.43 22.7269C166.58 22.6969 166.73 22.7069 166.86 22.7769L174.83 26.9669L163.62 27.5069L165.92 23.1369ZM156.83 41.8169C156.64 41.7169 156.53 41.5369 156.5 41.2869C156.48 41.1369 156.51 40.9769 156.59 40.8369L158.27 37.6469L161.32 37.4969L163.72 45.4369L156.83 41.8169ZM167.28 47.3169L165.38 46.3169L162.7 37.4369L165.71 37.2869L169.01 48.2269L167.28 47.3169ZM170.36 48.0569L167.09 37.2269L170.1 37.0769L172.3 44.3569L170.36 48.0469V48.0569ZM173.19 42.6769L171.48 37.0169L176.29 36.7869L173.19 42.6769ZM177.02 35.4069L158.99 36.2769L160.57 33.2769L178.6 32.4069L177.02 35.4069ZM179.67 30.3769L179.33 31.0269L161.3 31.8969L162.88 28.8869L177.15 28.1969L179.43 29.3969C179.75 29.5669 179.86 30.0069 179.66 30.3769H179.67Z" fill="#2F2F2F"/>
<path d="M94.8798 20.2369C93.2198 18.5769 91.0098 17.6569 88.6498 17.6569C86.2898 17.6569 84.0798 18.5769 82.4198 20.2369C80.7598 21.8969 79.8398 24.1169 79.8398 26.4669C79.8398 28.8169 80.7598 31.0369 82.4198 32.6969C84.0798 34.3569 86.2898 35.2769 88.6498 35.2769C91.0098 35.2769 93.2198 34.3569 94.8798 32.6969C96.5398 31.0369 97.4598 28.8169 97.4598 26.4669C97.4598 24.1169 96.5398 21.8969 94.8798 20.2369ZM86.0898 29.9569C85.8398 30.2069 85.4099 30.2069 85.1599 29.9569C84.9099 29.6969 84.9099 29.2869 85.1599 29.0269C85.2799 28.9069 85.4499 28.8369 85.6199 28.8369C85.7899 28.8369 85.9598 28.9069 86.0798 29.0269C86.1998 29.1469 86.2698 29.3169 86.2698 29.4869C86.2698 29.6569 86.1998 29.8269 86.0798 29.9469L86.0898 29.9569ZM86.0898 23.8969C85.8398 24.1469 85.4099 24.1469 85.1599 23.8969C84.8999 23.6369 84.8999 23.2269 85.1599 22.9669C85.2799 22.8469 85.4499 22.7769 85.6199 22.7769C85.7899 22.7769 85.9598 22.8469 86.0798 22.9669C86.1998 23.0869 86.2698 23.2569 86.2698 23.4269C86.2698 23.5969 86.1998 23.7669 86.0798 23.8869L86.0898 23.8969ZM92.1498 29.9569C91.8998 30.2069 91.4698 30.2069 91.2198 29.9569C91.0998 29.8369 91.0298 29.6669 91.0298 29.4969C91.0298 29.3269 91.0998 29.1569 91.2198 29.0369C91.3398 28.9169 91.5098 28.8469 91.6798 28.8469C91.8498 28.8469 92.0198 28.9169 92.1398 29.0369C92.2598 29.1569 92.3298 29.3269 92.3298 29.4969C92.3298 29.6669 92.2598 29.8369 92.1398 29.9569H92.1498ZM92.1498 23.8969C91.8998 24.1469 91.4698 24.1469 91.2198 23.8969C91.0998 23.7769 91.0298 23.6069 91.0298 23.4369C91.0298 23.2669 91.0998 23.0969 91.2198 22.9769C91.3398 22.8569 91.5098 22.7869 91.6798 22.7869C91.8498 22.7869 92.0198 22.8569 92.1398 22.9769C92.2598 23.0969 92.3298 23.2669 92.3298 23.4369C92.3298 23.6069 92.2598 23.7769 92.1398 23.8969H92.1498Z" fill="#2D8EE9"/>
<path d="M93.1698 28.0069C92.7698 27.6069 92.2398 27.3869 91.6798 27.3869C91.1198 27.3869 90.5798 27.6069 90.1898 28.0069C89.7898 28.4069 89.5698 28.9369 89.5698 29.4969C89.5698 30.0569 89.7898 30.5969 90.1898 30.9869C90.5898 31.3769 91.1198 31.6069 91.6898 31.6069C92.2598 31.6069 92.7798 31.3869 93.1798 30.9869C93.5798 30.5869 93.7998 30.0569 93.7998 29.4969C93.7998 28.9369 93.5798 28.3969 93.1798 28.0069H93.1698ZM92.1398 29.9669C91.8898 30.2169 91.4598 30.2169 91.2098 29.9669C91.0898 29.8469 91.0198 29.6769 91.0198 29.5069C91.0198 29.3369 91.0898 29.1669 91.2098 29.0469C91.3298 28.9269 91.4998 28.8569 91.6698 28.8569C91.8398 28.8569 92.0098 28.9269 92.1298 29.0469C92.2498 29.1669 92.3198 29.3369 92.3198 29.5069C92.3198 29.6769 92.2498 29.8469 92.1298 29.9669H92.1398Z" fill="#2F2F2F"/>
<path d="M87.12 21.9469C86.32 21.1469 84.93 21.1469 84.13 21.9469C83.33 22.7469 83.31 24.1169 84.13 24.9369C84.53 25.3369 85.06 25.5569 85.63 25.5569C86.2 25.5569 86.72 25.3369 87.12 24.9369C87.52 24.5369 87.74 24.0069 87.74 23.4369C87.74 22.8669 87.52 22.3469 87.12 21.9469ZM86.09 23.9069C85.84 24.1569 85.41 24.1569 85.16 23.9069C84.9 23.6469 84.9 23.2369 85.16 22.9769C85.28 22.8569 85.45 22.7869 85.62 22.7869C85.79 22.7869 85.96 22.8569 86.08 22.9769C86.2 23.0969 86.27 23.2669 86.27 23.4369C86.27 23.6069 86.2 23.7769 86.08 23.8969L86.09 23.9069Z" fill="#2F2F2F"/>
<path d="M87.1201 28.0069C86.3201 27.2069 84.9301 27.2069 84.1301 28.0069C83.3101 28.8269 83.3101 30.1669 84.1301 30.9969C84.5301 31.3969 85.0601 31.6169 85.6301 31.6169C86.2001 31.6169 86.7201 31.3969 87.1201 30.9969C87.5201 30.5969 87.7401 30.0669 87.7401 29.5069C87.7401 28.9469 87.5201 28.4069 87.1201 28.0069ZM86.0901 29.9669C85.8401 30.2169 85.4101 30.2169 85.1601 29.9669C84.9101 29.7069 84.9101 29.2969 85.1601 29.0369C85.2801 28.9169 85.4501 28.8469 85.6201 28.8469C85.7901 28.8469 85.9601 28.9169 86.0801 29.0369C86.2001 29.1569 86.2701 29.3269 86.2701 29.4969C86.2701 29.6669 86.2001 29.8369 86.0801 29.9569L86.0901 29.9669Z" fill="#2F2F2F"/>
<path d="M171.189 21.2022L170.224 23.0338L177.356 26.7892L178.32 24.9576L171.189 21.2022Z" fill="#2D8EE9"/>
<path d="M158.948 44.4553L157.983 46.2868L165.115 50.0422L166.08 48.2106L158.948 44.4553Z" fill="#2D8EE9"/>
<path d="M148.48 59.0869L144.14 55.2469L130.31 32.0769L128.99 26.4369C128.94 26.2169 128.78 26.0269 128.57 25.9369C128.36 25.8469 128.11 25.8669 127.91 25.9769L109.04 37.2469C108.84 37.3669 108.71 37.5769 108.69 37.8069C108.67 38.0369 108.76 38.2669 108.93 38.4169L113.27 42.2569L127.1 65.4269L128.42 71.0669C128.47 71.2969 128.63 71.4769 128.84 71.5669C128.93 71.6069 129.03 71.6269 129.12 71.6269C129.25 71.6269 129.38 71.5969 129.49 71.5269L148.36 60.2569C148.56 60.1369 148.69 59.9269 148.71 59.6969C148.73 59.4669 148.64 59.2369 148.47 59.0869H148.48ZM129.38 33.3569L132.09 37.8969L117.57 40.4069L129.38 33.3569ZM115 42.3269L132.88 39.2369L134.65 42.1969L116.83 45.3869L115 42.3269ZM117.62 46.7169L135.45 43.5269L137.21 46.4769L135.58 46.7669L119.38 49.6669L117.62 46.7169ZM120.18 50.9969L126.95 49.7869L122.68 55.1669L120.19 50.9969H120.18ZM123.47 56.5069L129.11 49.4069L133.91 48.5469L125.25 59.4869L123.47 56.5069ZM127.85 63.8469L126.04 60.8169L136.06 48.1569L138 47.8069L139.05 49.5569L127.85 63.8369V63.8469ZM130.71 62.5569L139.85 50.8969L142.58 55.4669L130.71 62.5569Z" fill="#2F2F2F"/>
<path d="M128.8 32.0069L113.92 40.8869L110.64 37.9869L127.8 27.7369L128.8 32.0069Z" fill="#2D8EE9"/>
<path d="M146.77 59.5169L129.61 69.7669L128.61 65.4969L143.49 56.6169L146.77 59.5169Z" fill="#2D8EE9"/>
<path d="M104.66 72.3469C104.61 72.1269 104.47 71.9369 104.28 71.8169L77.6198 55.2569C77.9798 54.3369 78.0498 53.3569 77.8098 52.3869C77.5098 51.1369 76.7398 50.0869 75.6398 49.4169C74.5498 48.7469 73.2498 48.5469 72.0098 48.8469C70.7598 49.1469 69.7098 49.9169 69.0398 51.0169C68.3698 52.1169 68.1698 53.4069 68.4698 54.6469C68.7698 55.8969 69.5398 56.9469 70.6398 57.6169C71.7398 58.2869 73.0298 58.4869 74.2698 58.1869C75.0898 57.9869 75.8498 57.5769 76.4498 57.0069C76.5498 56.9169 76.6398 56.8169 76.7298 56.7169L103.38 73.2669C103.52 73.3569 103.67 73.3969 103.83 73.3969C104.04 73.3969 104.26 73.3169 104.42 73.1569C104.47 73.1069 104.52 73.0469 104.55 72.9869C104.67 72.7969 104.71 72.5669 104.66 72.3369V72.3469ZM75.7798 55.1269C75.3498 55.8269 74.6698 56.3269 73.8698 56.5169C73.0698 56.7169 72.2398 56.5769 71.5298 56.1469C70.8298 55.7169 70.3298 55.0369 70.1398 54.2369C69.9498 53.4369 70.0798 52.6069 70.5098 51.8969C70.6498 51.6669 70.8198 51.4569 71.0098 51.2669C72.0198 50.3069 73.5598 50.1369 74.7498 50.8669C75.4498 51.2969 75.9498 51.9769 76.1398 52.7769C76.3298 53.5769 76.1998 54.4069 75.7698 55.1169L75.7798 55.1269Z" fill="#2F2F2F"/>
<path d="M73.1398 56.6169C74.8464 56.6169 76.2298 55.2335 76.2298 53.5269C76.2298 51.8204 74.8464 50.4369 73.1398 50.4369C71.4332 50.4369 70.0498 51.8204 70.0498 53.5269C70.0498 55.2335 71.4332 56.6169 73.1398 56.6169Z" fill="#2D8EE9"/>
<path d="M93.1701 21.9469C92.3701 21.1469 90.9801 21.1469 90.1801 21.9469C89.7801 22.3469 89.5601 22.8769 89.5601 23.4369C89.5601 23.9969 89.7801 24.5369 90.1801 24.9269C90.5801 25.3169 91.1101 25.5469 91.6801 25.5469C92.2501 25.5469 92.7701 25.3269 93.1701 24.9269C93.5701 24.5269 93.7901 23.9969 93.7901 23.4269C93.7901 22.8569 93.5701 22.3269 93.1701 21.9369V21.9469ZM92.1401 23.9069C91.8901 24.1569 91.4601 24.1569 91.2101 23.9069C90.9501 23.6469 90.9501 23.2369 91.2101 22.9769C91.3301 22.8569 91.5001 22.7869 91.6701 22.7869C91.8401 22.7869 92.0101 22.8569 92.1301 22.9769C92.2501 23.0969 92.3201 23.2669 92.3201 23.4369C92.3201 23.6069 92.2501 23.7769 92.1301 23.8969L92.1401 23.9069Z" fill="#2F2F2F"/>
<path d="M78.8002 23.2369C78.5102 23.0769 78.2202 22.9169 77.9302 22.7569L78.2902 22.0969C78.5902 22.2569 78.8802 22.4169 79.1702 22.5869L78.8002 23.2369Z" fill="#32AD4A"/>
<path d="M31.1701 63.0369L31.1401 62.2869C31.3801 62.2869 31.6301 62.2669 31.8701 62.2469C32.3001 62.2169 32.7101 62.1669 33.1201 62.1069L33.2301 62.8469C32.8101 62.9069 32.3801 62.9569 31.9401 62.9969C31.6801 63.0169 31.4301 63.0369 31.1701 63.0469V63.0369ZM29.0901 62.9769C28.3801 62.9069 27.7001 62.7869 27.0401 62.6169L27.2301 61.8869C27.8501 62.0469 28.5001 62.1669 29.1701 62.2269L29.1001 62.9769H29.0901ZM35.2501 62.4369L35.0601 61.7069C35.7101 61.5369 36.3401 61.3269 36.9401 61.0869L37.2201 61.7869C36.5901 62.0369 35.9301 62.2569 35.2501 62.4369ZM25.0701 61.9269C24.4401 61.6369 23.8201 61.2969 23.2501 60.9069L23.6701 60.2869C24.2101 60.6569 24.7901 60.9769 25.3801 61.2469L25.0701 61.9269ZM39.1001 60.8969L38.7301 60.2469C39.3101 59.9169 39.8601 59.5469 40.3701 59.1569L40.8301 59.7469C40.2901 60.1669 39.7101 60.5569 39.1001 60.8969ZM21.6301 59.5969C21.1401 59.1269 20.6701 58.6069 20.2301 58.0469L20.8201 57.5869C21.2301 58.1169 21.6801 58.6069 22.1401 59.0469L21.6201 59.5869L21.6301 59.5969ZM42.3701 58.3269L41.8201 57.8169C42.2701 57.3269 42.6701 56.8069 43.0101 56.2569L43.6501 56.6569C43.2901 57.2369 42.8601 57.7969 42.3801 58.3269H42.3701ZM19.0701 56.3269C18.7301 55.7469 18.4101 55.1369 18.1201 54.4869L18.8001 54.1769C19.0801 54.7969 19.3901 55.3869 19.7101 55.9369L19.0701 56.3169V56.3269ZM44.5601 54.7569L43.8501 54.5069C44.0701 53.8769 44.2101 53.2469 44.2601 52.6269L45.0101 52.6869C44.9601 53.3669 44.8001 54.0669 44.5601 54.7569ZM17.3601 52.5669C17.1401 51.9369 16.9501 51.2769 16.7801 50.5869L17.5101 50.4069C17.6801 51.0669 17.8701 51.7169 18.0801 52.3269L17.3701 52.5669H17.3601ZM44.1101 50.7369C43.9501 50.1169 43.6901 49.5469 43.3201 49.0369L43.9301 48.5969C44.3501 49.1769 44.6601 49.8369 44.8401 50.5569L44.1101 50.7369ZM16.3401 48.5869C16.2201 47.9269 16.1301 47.2469 16.0501 46.5469L16.8001 46.4669C16.8701 47.1469 16.9701 47.8069 17.0801 48.4469L16.3401 48.5769V48.5869ZM41.9501 47.7469C41.4401 47.4169 40.8601 47.1469 40.2101 46.9569L40.4201 46.2369C41.1401 46.4469 41.7901 46.7469 42.3601 47.1169L41.9501 47.7469ZM15.9001 44.4969C15.8801 43.9969 15.8701 43.4869 15.8701 42.9869V42.4469L16.6201 42.4569V42.9869C16.6201 43.4769 16.6201 43.9669 16.6501 44.4569L15.9001 44.4869V44.4969ZM16.7101 40.4569L15.9601 40.4069C16.0101 39.7269 16.0801 39.0469 16.1701 38.3669L16.9101 38.4669C16.8201 39.1269 16.7501 39.7969 16.7001 40.4569H16.7101ZM17.2501 36.4869L16.5201 36.3369C16.6601 35.6569 16.8201 34.9869 16.9901 34.3369L17.7101 34.5369C17.5401 35.1669 17.3801 35.8269 17.2501 36.4869ZM18.3201 32.6369L17.6101 32.3769C17.8501 31.7169 18.1101 31.0769 18.4001 30.4769L19.0701 30.8169C18.8101 31.3769 18.5601 31.9969 18.3201 32.6369ZM20.0001 29.0169L19.3501 28.6469C19.6901 28.0469 20.0401 27.4569 20.4101 26.8869L21.0401 27.2969C20.6801 27.8469 20.3301 28.4169 20.0001 29.0069V29.0169ZM22.1901 25.6769L21.6001 25.2169C22.0201 24.6669 22.4601 24.1369 22.9101 23.6369L23.4701 24.1369C23.0301 24.6269 22.6001 25.1469 22.1901 25.6769ZM24.8601 22.7069L24.3401 22.1669C24.8301 21.6969 25.3501 21.2369 25.8801 20.8069L26.3501 21.3869C25.8301 21.8069 25.3301 22.2469 24.8501 22.7069H24.8601ZM76.1401 21.8469C75.5501 21.5469 74.9401 21.2569 74.3201 20.9769L74.6301 20.2969C75.2501 20.5869 75.8701 20.8769 76.4701 21.1769L76.1301 21.8469H76.1401ZM27.9601 20.1869L27.5301 19.5669C28.0901 19.1769 28.6801 18.8069 29.2601 18.4669L29.6401 19.1169C29.0701 19.4469 28.5001 19.8169 27.9501 20.1869H27.9601ZM72.4801 20.1569C71.8601 19.8969 71.2401 19.6369 70.6101 19.3969L70.8801 18.6969C71.5201 18.9469 72.1501 19.2069 72.7701 19.4669L72.4801 20.1569ZM68.7201 18.6869C68.0901 18.4569 67.4501 18.2469 66.8101 18.0369L67.0401 17.3269C67.6901 17.5369 68.3301 17.7569 68.9701 17.9869L68.7201 18.6969V18.6869ZM31.4101 18.1669L31.0801 17.4969C31.6901 17.1969 32.3201 16.9169 32.9601 16.6569L33.2401 17.3469C32.6201 17.5969 32.0001 17.8769 31.4101 18.1669ZM64.8801 17.4269C64.2401 17.2369 63.5901 17.0569 62.9401 16.8869L63.1301 16.1669C63.7901 16.3369 64.4401 16.5269 65.0901 16.7169L64.8801 17.4369V17.4269ZM35.1201 16.6469L34.8801 15.9369C35.5201 15.7269 36.1801 15.5269 36.8501 15.3469L37.0401 16.0669C36.3901 16.2369 35.7401 16.4369 35.1201 16.6469ZM60.9801 16.3869C60.3201 16.2369 59.6701 16.0869 59.0101 15.9569L59.1601 15.2169C59.8301 15.3469 60.4901 15.4969 61.1501 15.6469L60.9801 16.3769V16.3869ZM39.0001 15.6069L38.8501 14.8769C39.5201 14.7369 40.1901 14.6169 40.8701 14.5169L40.9801 15.2569C40.3101 15.3569 39.6501 15.4769 39.0001 15.6069ZM57.0301 15.5969C56.3701 15.4869 55.7001 15.3869 55.0401 15.2969L55.1401 14.5569C55.8101 14.6469 56.4901 14.7469 57.1601 14.8669L57.0401 15.6069L57.0301 15.5969ZM53.0301 15.0569C52.3601 14.9869 51.6901 14.9369 51.0201 14.8869L51.0701 14.1369C51.7501 14.1769 52.4301 14.2369 53.1101 14.3069L53.0301 15.0569ZM42.9701 15.0069L42.8901 14.2569C43.5701 14.1869 44.2501 14.1369 44.9301 14.0969L44.9701 14.8469C44.3001 14.8869 43.6301 14.9369 42.9601 15.0069H42.9701ZM49.0101 14.7969C48.5501 14.7869 48.0901 14.7769 47.6301 14.7769H47.0001V14.0269H47.6401C48.1101 14.0269 48.5801 14.0269 49.0401 14.0469L49.0201 14.7969H49.0101Z" fill="#32AD4A"/>
<path d="M38.22 46.5969C37.91 46.5769 37.59 46.5569 37.25 46.5569V45.8069C37.61 45.8069 37.95 45.8169 38.28 45.8469L38.22 46.5969Z" fill="#32AD4A"/>
<path d="M89.0178 61.0994L88.3022 61.798L88.8262 62.3347L89.5417 61.6361L89.0178 61.0994Z" fill="#32AD4A"/>
<path d="M91.0002 60.1869L90.4702 59.6569C90.9502 59.1769 91.4302 58.6869 91.9002 58.1969L92.4402 58.7169C91.9602 59.2169 91.4802 59.7069 91.0002 60.1869ZM93.8502 57.2169L93.3002 56.7069C93.7602 56.2069 94.2102 55.6969 94.6502 55.1769L95.2202 55.6669C94.7802 56.1869 94.3202 56.6969 93.8502 57.2169ZM96.5202 54.0669L95.9302 53.6069C96.3702 53.0469 96.7702 52.4969 97.1202 51.9669L97.7402 52.3869C97.3802 52.9269 96.9702 53.4869 96.5202 54.0669ZM98.8302 50.6069L98.1702 50.2469C98.5102 49.6269 98.8002 49.0169 99.0302 48.4369L99.7302 48.7069C99.4902 49.3169 99.1902 49.9569 98.8302 50.6069ZM100.32 46.6769L99.5802 46.5469C99.6602 46.0869 99.7102 45.6269 99.7102 45.1869C99.7102 44.9969 99.7102 44.7969 99.6802 44.6069L100.43 44.5469C100.45 44.7569 100.46 44.9769 100.46 45.1969C100.46 45.6869 100.41 46.1869 100.32 46.6969V46.6769ZM99.2202 42.7369C99.0702 42.3769 98.8702 42.0269 98.6402 41.6869C98.5002 41.4769 98.3502 41.2669 98.2002 41.0469L98.8102 40.6169C98.9702 40.8369 99.1102 41.0569 99.2602 41.2669C99.5102 41.6469 99.7302 42.0369 99.9002 42.4369L99.2102 42.7369H99.2202ZM97.0102 39.4069C96.6102 38.8869 96.1902 38.3469 95.7502 37.8069L96.3302 37.3369C96.7802 37.8869 97.2102 38.4269 97.6102 38.9569L97.0102 39.4069Z" fill="#32AD4A"/>
<path d="M94.4198 36.2469C94.1998 35.9969 93.9798 35.7469 93.7598 35.5069L94.3198 35.0069C94.5498 35.2569 94.7698 35.5069 94.9898 35.7569L94.4298 36.2469H94.4198Z" fill="#32AD4A"/>
<path d="M118.21 52.3669L117.75 51.7769L118.54 51.1569L119 51.7569L118.21 52.3669Z" fill="#32AD4A"/>
<path d="M85.2199 71.9969H84.9499C84.3999 71.9769 83.9099 71.9269 83.4999 71.8369L83.6499 71.0969C84.0199 71.1669 84.4599 71.2169 84.9699 71.2369H85.2199C85.3299 71.2369 85.4399 71.2369 85.5599 71.2369L85.5899 71.9869C85.4599 71.9869 85.3399 71.9869 85.2199 71.9869V71.9969ZM87.6399 71.6969L87.4699 70.9669C88.0599 70.8369 88.6999 70.6469 89.3599 70.4169L89.6099 71.1269C88.9199 71.3669 88.2599 71.5569 87.6399 71.6969ZM81.6499 70.4769C81.6199 70.3669 81.6099 70.2469 81.6099 70.1269C81.6099 69.6169 81.8299 69.0269 82.2799 68.3169L82.9099 68.7169C82.5399 69.2969 82.3599 69.7669 82.3599 70.1169C82.3599 70.1869 82.3599 70.2469 82.3799 70.3069L81.6499 70.4769ZM91.5099 70.3769L91.2099 69.6869C91.7899 69.4369 92.3999 69.1469 93.0099 68.8469L93.3399 69.5169C92.7099 69.8269 92.0999 70.1169 91.4999 70.3769H91.5099ZM95.1399 68.5769L94.7799 67.9169C95.3499 67.6069 95.9299 67.2769 96.5199 66.9269L96.8999 67.5769C96.2999 67.9269 95.7199 68.2669 95.1399 68.5769ZM84.0899 67.1669L83.5199 66.6769C83.9299 66.2069 84.3899 65.7069 84.8899 65.1769L85.4299 65.6969C84.9399 66.2069 84.4799 66.6969 84.0899 67.1669ZM98.6199 66.5269L98.2199 65.8869C98.7799 65.5369 99.3399 65.1869 99.9099 64.8069L100.32 65.4369C99.7399 65.8069 99.1799 66.1769 98.6199 66.5169V66.5269ZM102 64.3269L101.58 63.7069C102.13 63.3369 102.68 62.9569 103.24 62.5769L103.67 63.1969C103.11 63.5869 102.55 63.9669 102.01 64.3369L102 64.3269ZM105.31 62.0369L104.88 61.4269C105.42 61.0469 105.96 60.6569 106.51 60.2569L106.95 60.8669C106.4 61.2669 105.85 61.6569 105.31 62.0369ZM108.57 59.6769L108.12 59.0769C108.66 58.6869 109.19 58.2869 109.73 57.8769L110.18 58.4769C109.64 58.8769 109.1 59.2769 108.56 59.6769H108.57ZM111.8 57.2669L111.35 56.6669L112.95 55.4469L113.41 56.0469L111.81 57.2669H111.8ZM115 54.8269L114.54 54.2369L116.13 53.0069L116.59 53.5969L115 54.8269Z" fill="#32AD4A"/>
<path d="M86.8601 64.2669L86.3301 63.7369L87.0401 63.0369L87.5701 63.5669L86.8601 64.2669Z" fill="#32AD4A"/>
<path d="M162.61 26.7669C162.3 26.6969 161.98 26.6269 161.66 26.5769L161.78 25.8369C162.12 25.8869 162.46 25.9569 162.79 26.0369L162.62 26.7669H162.61Z" fill="#32AD4A"/>
<path d="M137.22 37.7669L136.78 37.1569C137.32 36.7569 137.86 36.3769 138.39 35.9869L138.83 36.5969C138.3 36.9769 137.76 37.3669 137.22 37.7569V37.7669ZM140.45 35.4569L140.02 34.8469C140.57 34.4569 141.12 34.0869 141.66 33.7169L142.08 34.3369C141.54 34.7069 141 35.0769 140.45 35.4669V35.4569ZM143.72 33.2169L143.31 32.5969C143.87 32.2269 144.43 31.8569 144.98 31.5069L145.38 32.1369C144.83 32.4869 144.28 32.8469 143.72 33.2169ZM147.06 31.0869L146.67 30.4469C147.25 30.0969 147.82 29.7469 148.39 29.4269L148.76 30.0769C148.2 30.3969 147.64 30.7369 147.06 31.0869ZM150.49 29.1169L150.14 28.4569C150.53 28.2469 150.92 28.0469 151.3 27.8569C151.51 27.7469 151.72 27.6469 151.93 27.5469L152.25 28.2269C152.05 28.3269 151.84 28.4169 151.64 28.5269C151.26 28.7169 150.88 28.9069 150.5 29.1169H150.49ZM154.05 27.4769L153.79 26.7769C154.44 26.5369 155.09 26.3369 155.72 26.1769L155.91 26.9069C155.3 27.0669 154.67 27.2569 154.05 27.4869V27.4769ZM157.82 26.5269L157.72 25.7869C158.37 25.7069 159.02 25.6569 159.65 25.6569H159.76V26.4069H159.66C159.06 26.4069 158.45 26.4469 157.83 26.5269H157.82Z" fill="#32AD4A"/>
<path d="M135.169 38.3543L134.368 38.9526L134.817 39.5535L135.618 38.9552L135.169 38.3543Z" fill="#32AD4A"/>
<path d="M176.38 39.8969C176.23 39.6069 176.07 39.3269 175.9 39.0569L176.54 38.6569C176.72 38.9469 176.89 39.2469 177.05 39.5469L176.39 39.8969H176.38Z" fill="#32AD4A"/>
<path d="M210.92 135.547C210.22 135.517 209.53 135.457 208.87 135.347L208.99 134.607C209.63 134.707 210.29 134.777 210.95 134.797L210.92 135.547ZM212.98 135.517L212.93 134.767C213.58 134.717 214.24 134.637 214.9 134.527L215.03 135.267C214.35 135.387 213.66 135.467 212.99 135.517H212.98ZM206.86 134.887C206.19 134.687 205.54 134.437 204.93 134.147L205.25 133.467C205.83 133.737 206.44 133.977 207.08 134.167L206.86 134.887ZM217.03 134.827L216.83 134.107C217.46 133.937 218.1 133.737 218.72 133.507L218.98 134.207C218.34 134.447 217.68 134.657 217.03 134.827ZM220.88 133.417L220.56 132.737C221.16 132.457 221.75 132.147 222.32 131.827L222.69 132.477C222.1 132.817 221.49 133.127 220.87 133.417H220.88ZM203.13 133.117C202.56 132.727 202.02 132.287 201.51 131.817L202.03 131.277C202.5 131.727 203.02 132.137 203.55 132.507L203.13 133.127V133.117ZM224.43 131.387L224 130.767C224.54 130.387 225.07 129.987 225.57 129.567L226.06 130.137C225.55 130.577 225 130.997 224.43 131.387ZM200.12 130.277C199.7 129.737 199.32 129.157 198.98 128.557L199.63 128.187C199.96 128.767 200.32 129.307 200.72 129.817L200.13 130.277H200.12ZM227.55 128.717L227.01 128.197C227.46 127.727 227.89 127.217 228.3 126.697L228.89 127.157C228.47 127.697 228.02 128.227 227.55 128.717ZM198.07 126.697C197.82 126.087 197.59 125.427 197.4 124.757L198.12 124.547C198.31 125.197 198.53 125.827 198.77 126.417L198.08 126.707L198.07 126.697ZM230.06 125.477L229.42 125.077C229.77 124.527 230.09 123.947 230.39 123.347L231.06 123.677C230.75 124.287 230.42 124.897 230.06 125.467V125.477ZM197.86 122.667H197.11C197.11 121.997 197.21 121.297 197.39 120.577L198.12 120.757C197.96 121.417 197.87 122.057 197.86 122.667ZM231.89 121.817L231.19 121.547C231.43 120.937 231.65 120.307 231.84 119.667L232.56 119.877C232.36 120.537 232.14 121.187 231.89 121.817ZM198.75 118.917L198.06 118.617C198.33 118.007 198.65 117.387 199.02 116.787L199.66 117.177C199.31 117.747 199 118.337 198.74 118.917H198.75ZM233.07 117.897L232.34 117.737C232.48 117.107 232.6 116.447 232.7 115.777L233.44 115.887C233.34 116.577 233.22 117.247 233.07 117.897ZM200.8 115.557L200.21 115.087C200.63 114.557 201.09 114.037 201.58 113.547L202.11 114.077C201.64 114.547 201.2 115.037 200.8 115.557ZM233.67 113.857L232.92 113.797C232.97 113.137 233.01 112.477 233.02 111.807L233.77 111.827C233.76 112.507 233.72 113.187 233.67 113.867V113.857ZM203.59 112.767L203.12 112.177C203.67 111.737 204.24 111.347 204.82 110.997L205.21 111.637C204.66 111.967 204.12 112.347 203.59 112.757V112.767ZM206.95 110.757L206.66 110.067C207.32 109.797 207.99 109.577 208.65 109.437L208.81 110.167C208.2 110.297 207.57 110.497 206.95 110.747V110.757ZM212.62 110.257C212.02 110.087 211.38 109.987 210.73 109.977V109.227C211.46 109.237 212.16 109.337 212.83 109.537L212.62 110.257ZM233.01 109.807C232.99 109.147 232.95 108.477 232.89 107.817L233.64 107.747C233.7 108.427 233.74 109.107 233.76 109.777L233.01 109.807ZM232.66 105.827C232.57 105.167 232.46 104.507 232.34 103.857L233.08 103.717C233.21 104.387 233.32 105.057 233.41 105.727L232.67 105.827H232.66ZM231.92 101.897C231.77 101.247 231.6 100.607 231.42 99.9569L232.14 99.7569C232.33 100.407 232.5 101.067 232.65 101.727L231.92 101.897ZM230.83 98.0469C230.62 97.4169 230.4 96.7869 230.16 96.1569L230.86 95.8869C231.1 96.5169 231.33 97.1569 231.54 97.8069L230.83 98.0469ZM229.4 94.3069C229.14 93.6969 228.86 93.0869 228.57 92.4869L229.24 92.1569C229.54 92.7669 229.82 93.3869 230.09 94.0069L229.4 94.3069ZM227.65 90.7069C227.33 90.1169 227 89.5369 226.65 88.9769L227.29 88.5869C227.64 89.1669 227.98 89.7569 228.3 90.3569L227.64 90.7169L227.65 90.7069ZM225.57 87.2869C225.19 86.7269 224.81 86.1869 224.41 85.6669L225.01 85.2169C225.42 85.7569 225.81 86.3069 226.2 86.8769L225.58 87.2969L225.57 87.2869ZM223.16 84.1069C222.73 83.5969 222.28 83.0969 221.83 82.6269L222.37 82.1069C222.84 82.5969 223.29 83.0969 223.74 83.6269L223.17 84.1169L223.16 84.1069ZM188.1 81.2369L188.07 80.4869C188.67 80.4669 189.3 80.3769 189.99 80.2169L190.16 80.9469C189.42 81.1169 188.74 81.2169 188.09 81.2369H188.1ZM220.4 81.2369C220.01 80.8769 219.61 80.5369 219.2 80.2069C219.09 80.1169 218.99 80.0369 218.88 79.9569L219.34 79.3669C219.45 79.4569 219.56 79.5369 219.67 79.6269C220.09 79.9669 220.5 80.3169 220.9 80.6869L220.39 81.2369H220.4ZM186 81.0369C185.33 80.8769 184.67 80.6069 184.04 80.2569L184.41 79.6069C184.98 79.9269 185.58 80.1669 186.18 80.3169L186 81.0469V81.0369ZM192.14 80.3669L191.9 79.6569C192.44 79.4669 192.98 79.2669 193.52 79.0669L193.79 78.9669L194.05 79.6669L193.78 79.7669C193.24 79.9669 192.69 80.1769 192.14 80.3669ZM182.35 79.0069C181.85 78.5469 181.39 78.0169 180.97 77.4369L181.58 76.9969C181.97 77.5369 182.4 78.0269 182.86 78.4569L182.35 79.0069ZM195.93 79.0069L195.7 78.2969C196.33 78.0869 196.98 77.8869 197.64 77.7069L197.85 78.4269C197.2 78.6169 196.56 78.8069 195.93 79.0069ZM217.25 78.8869C216.69 78.5769 216.09 78.2969 215.47 78.0569L215.74 77.3569C216.39 77.6069 217.02 77.9069 217.61 78.2269L217.25 78.8869ZM199.79 77.9069L199.61 77.1769C200.27 77.0169 200.93 76.8769 201.6 76.7469L201.74 77.4869C201.08 77.6169 200.43 77.7569 199.78 77.9069H199.79ZM213.59 77.4569C212.97 77.2969 212.32 77.1669 211.65 77.0669L211.76 76.3269C212.45 76.4269 213.13 76.5669 213.78 76.7269L213.59 77.4569ZM203.71 77.1569L203.6 76.4169C204.27 76.3169 204.95 76.2469 205.63 76.1869L205.69 76.9369C205.03 76.9969 204.37 77.0669 203.71 77.1569ZM209.67 76.8669C209.17 76.8369 208.68 76.8269 208.18 76.8269H207.68L207.67 76.0769H208.18C208.69 76.0769 209.21 76.0769 209.71 76.1169L209.67 76.8669ZM179.91 75.6469C179.79 75.3969 179.68 75.1369 179.57 74.8769C179.42 74.4969 179.28 74.1069 179.16 73.7169L179.87 73.4969C179.99 73.8769 180.12 74.2469 180.26 74.6069C180.36 74.8469 180.46 75.0869 180.57 75.3269L179.89 75.6469H179.91ZM178.66 71.7269C178.53 71.0869 178.42 70.4069 178.34 69.7069L179.08 69.6169C179.16 70.2969 179.27 70.9569 179.39 71.5769L178.66 71.7269ZM178.16 67.6669C178.12 66.9969 178.1 66.3169 178.09 65.6369H178.84C178.84 66.3069 178.87 66.9669 178.91 67.6269L178.16 67.6669ZM178.85 63.6169H178.1C178.11 62.9369 178.13 62.2569 178.16 61.5769L178.91 61.6069C178.88 62.2769 178.86 62.9469 178.85 63.6169ZM179 59.5969L178.25 59.5569L178.36 57.5369L179.11 57.5769L179.01 59.5869L179 59.5969ZM179.2 55.5669L178.45 55.5269C178.48 54.8569 178.51 54.1869 178.53 53.5169L179.28 53.5369C179.26 54.2069 179.24 54.8869 179.2 55.5569V55.5669ZM178.93 51.5169H178.55C178.55 50.8269 178.54 50.1669 178.51 49.5169L179.26 49.4869C179.29 50.1469 179.3 50.8169 179.3 51.4969L178.92 51.5269L178.93 51.5169ZM178.39 47.5169C178.33 46.8369 178.25 46.1669 178.14 45.5369L178.88 45.4169C178.98 46.0669 179.07 46.7469 179.13 47.4469L178.38 47.5169H178.39ZM177.75 43.5969C177.58 42.9269 177.38 42.2969 177.17 41.7069L177.87 41.4469C178.1 42.0569 178.3 42.7169 178.48 43.4169L177.75 43.5969Z" fill="#32AD4A"/>
<path d="M215.21 111.597C214.95 111.397 214.69 111.207 214.43 111.047L214.82 110.407C215.11 110.587 215.4 110.787 215.68 111.007L215.21 111.597Z" fill="#32AD4A"/>
</svg>
