<svg width="36" height="36" viewBox="0 0 36 36" fill="none" xmlns="http://www.w3.org/2000/svg">
<circle cx="18" cy="18" r="18" fill="#E7E7E7"/>
<path fill-rule="evenodd" clip-rule="evenodd" d="M10.7071 9.29289C10.3166 8.90237 9.68342 8.90237 9.29289 9.29289C8.90237 9.68342 8.90237 10.3166 9.29289 10.7071L16.5858 18L9.29289 25.2929C8.90237 25.6834 8.90237 26.3166 9.29289 26.7071C9.68342 27.0976 10.3166 27.0976 10.7071 26.7071L18 19.4142L25.2929 26.7071C25.6834 27.0976 26.3166 27.0976 26.7071 26.7071C27.0976 26.3166 27.0976 25.6834 26.7071 25.2929L19.4142 18L26.7071 10.7071C27.0976 10.3166 27.0976 9.68342 26.7071 9.29289C26.3166 8.90237 25.6834 8.90237 25.2929 9.29289L18 16.5858L10.7071 9.29289Z" fill="#2F2F2F"/>
</svg>
