<svg width="13" height="18" viewBox="0 0 13 18" fill="none" xmlns="http://www.w3.org/2000/svg">
<path d="M1.03319 10.0264L1.06568 10.0752C1.1063 10.1347 1.14692 10.1916 1.18753 10.2513L5.89198 17.0221C6.02913 17.2194 6.25433 17.3371 6.49463 17.3371C6.73494 17.3371 6.95994 17.2194 7.09729 17.0221L11.7963 10.2619C11.8395 10.1996 11.8856 10.1374 11.9289 10.0722L11.9587 10.029C12.8087 8.71425 13.1555 7.13678 12.9354 5.58669C12.7155 4.0364 11.9434 2.61781 10.761 1.59144C9.57873 0.565223 8.06569 0 6.50007 0C4.93431 0 3.42126 0.565271 2.23902 1.59144C1.05658 2.61786 0.284463 4.03645 0.0645554 5.58669C-0.155536 7.13678 0.19132 8.71425 1.04125 10.029L1.03319 10.0264ZM6.49583 3.79725C7.21412 3.79725 7.9031 4.0827 8.41092 4.5905C8.91892 5.09851 9.20417 5.7873 9.20417 6.5056C9.20417 7.22389 8.91891 7.91287 8.41092 8.42069C7.9031 8.9287 7.21412 9.21394 6.49583 9.21394C5.77753 9.21394 5.08855 8.92868 4.58073 8.42069C4.07273 7.91287 3.78748 7.22389 3.78748 6.5056C3.78748 5.7873 4.07275 5.09851 4.58073 4.5905C5.08855 4.08269 5.77753 3.79725 6.49583 3.79725Z" fill="white"/>
</svg>
