<svg width="9" height="16" viewBox="0 0 9 16" fill="none" xmlns="http://www.w3.org/2000/svg">
<mask id="mask0_323_866" style="mask-type:luminance" maskUnits="userSpaceOnUse" x="0" y="0" width="9" height="16">
<path d="M8.79829 0H0V16H8.79829V0Z" fill="white"/>
</mask>
<g mask="url(#mask0_323_866)">
<path d="M8.36661 -0.0170817L6.31436 -0.0205078C4.00857 -0.0205078 2.52164 1.50754 2.52164 3.87157V5.66686H0.45911C0.280952 5.66686 0.137054 5.81076 0.137054 5.98891V8.58934C0.137054 8.7675 0.280952 8.9114 0.45911 8.9114H2.52164V15.4759C2.52164 15.654 2.66553 15.7979 2.84369 15.7979H5.53663C5.71479 15.7979 5.85868 15.654 5.85868 15.4759V8.91482H8.27067C8.44883 8.91482 8.59273 8.77093 8.59273 8.59277V5.99234C8.59273 5.90669 8.55847 5.82446 8.4968 5.76279C8.43513 5.70112 8.3529 5.67028 8.26725 5.67028H5.85526V4.14908C5.85526 3.41589 6.02999 3.04587 6.98245 3.04587H8.36318C8.54134 3.04587 8.68524 2.90198 8.68524 2.72382V0.3084C8.68866 0.126816 8.54476 -0.0170817 8.36661 -0.0170817Z" fill="white"/>
</g>
</svg>
