<svg width="16" height="16" viewBox="0 0 16 16" fill="none" xmlns="http://www.w3.org/2000/svg">
<path d="M11.3522 0H4.64777C2.0849 0 0 2.0849 0 4.64721V11.3522C0 13.9151 2.0849 16 4.64777 16H11.3522C13.9151 16 16 13.9151 16 11.3522V4.64721C16 2.08494 13.9151 0 11.3522 0ZM14.7504 11.3522C14.7504 13.2255 13.2261 14.7495 11.3522 14.7495H4.64777C2.77455 14.7495 1.25052 13.2255 1.25052 11.3522V4.64721C1.25052 2.77399 2.77455 1.24937 4.64777 1.24937H11.3522C13.2261 1.24937 14.7504 2.77399 14.7504 4.64721V11.3522Z" fill="white"/>
<path d="M8.00001 3.68689C5.622 3.68689 3.68796 5.62201 3.68796 8.00031C3.68796 10.3775 5.622 12.3115 8.00001 12.3115C10.3781 12.3115 12.3121 10.3775 12.3121 8.00031C12.3121 5.62201 10.3781 3.68689 8.00001 3.68689ZM8.00001 11.0622C6.31136 11.0622 4.9376 9.68791 4.9376 8.00031C4.9376 6.3111 6.31136 4.93678 8.00001 4.93678C9.68873 4.93678 11.0624 6.3111 11.0624 8.00031C11.0624 9.68791 9.68873 11.0622 8.00001 11.0622Z" fill="white"/>
<path d="M12.3751 2.99939C12.7207 2.99939 13.0001 3.27955 13.0001 3.62437C13.0001 3.96975 12.7207 4.24935 12.3751 4.24935C12.0303 4.24935 11.7504 3.96975 11.7504 3.62437C11.7504 3.27955 12.0303 2.99939 12.3751 2.99939Z" fill="white"/>
</svg>
