<svg width="140" height="72" viewBox="0 0 140 72" fill="none" xmlns="http://www.w3.org/2000/svg">
<path d="M36.0386 39.481C37.2724 37.5319 37.898 35.4041 37.898 33.1565C37.898 30.4091 36.9326 28.3062 35.0288 26.906C33.2057 25.5654 30.4901 24.8856 26.9574 24.8856H15.5642L10.4363 54.0694C10.4363 54.0694 9.87623 54.6575 14.489 54.6575C18.8905 54.6575 18.8777 54.0694 18.8777 54.0694L20.4088 45.3143H23.095C23.095 45.3143 25.8116 54.6575 32.9113 58.2595C38.8929 61.2943 45.3269 58.2595 45.3269 58.2595C34.5024 53.904 31.3771 43.6193 31.3771 43.6193C33.3736 42.6068 34.9391 41.2176 36.0386 39.481ZM22.7228 32.319H25.6225C27.175 32.319 27.9124 32.6233 28.2571 32.8782C28.5306 33.0809 28.8943 33.4564 28.8943 34.3736C28.8943 34.9556 28.7345 35.5066 28.4057 36.058C28.082 36.601 27.5993 37.0277 26.9301 37.3625C26.2423 37.7065 25.3532 37.881 24.2877 37.881H21.7306L22.7228 32.319H22.7228Z" fill="white"/>
<path d="M57.073 47.8283L59.9273 31.9666C59.9273 31.9666 59.3156 31.2811 57.0524 31.2811C54.5189 31.2811 53.9288 31.9666 53.9288 31.9666C52.477 31.6122 51.4744 31.4133 50.8652 31.3588C50.2679 31.3058 49.7093 31.2789 49.2048 31.2789C47.5323 31.2789 45.9061 31.6471 44.3708 32.3732C42.8491 33.0935 41.4995 34.0987 40.3596 35.3607C39.2256 36.6165 38.323 38.0924 37.677 39.7474C37.0302 41.4055 36.7021 43.1612 36.7021 44.9657C36.7021 46.3241 36.89 47.5833 37.2606 48.708C37.6383 49.856 38.1767 50.8353 38.8604 51.6186C39.5518 52.4115 40.3854 53.0254 41.338 53.4435C42.2843 53.8588 43.3121 54.0694 44.393 54.0694C45.9489 54.0694 47.2901 53.7236 48.3792 53.0416C48.9287 52.6975 49.4439 52.2675 49.921 51.7557C50.0993 52.1943 50.3453 52.573 50.6585 52.8897C51.3825 53.6218 52.4353 53.993 53.7874 53.993C55.2945 53.993 56.668 53.9554 57.5914 53.3545C58.5186 52.7511 58.9427 51.869 59.0748 50.7685C59.1649 50.0171 59.2092 48.7069 59.0456 48.4918C58.6963 48.0323 57.0515 48.1136 57.0515 48.1136C57.0463 48.064 57.0458 47.9739 57.073 47.8283V47.8283ZM51.1404 38.3225L50.3113 43.1316C50.195 43.7313 49.9876 44.3919 49.6949 45.0947C49.4301 45.73 49.045 46.2439 48.5177 46.6658C48.0331 47.0536 47.5208 47.2421 46.9516 47.2421C46.0161 47.2421 45.6505 46.8733 45.4566 46.5953C45.0901 46.071 44.9043 45.3171 44.9043 44.3545C44.9043 43.6455 45.0157 42.8879 45.2356 42.1023C45.4489 41.3384 45.7777 40.6457 46.2126 40.0433C46.6332 39.4609 47.1577 38.9907 47.7709 38.6463C48.3728 38.3087 49.0292 38.1446 49.7776 38.1446C50.0775 38.1446 50.4419 38.1846 50.8589 38.2632C50.9631 38.283 51.0566 38.3029 51.1404 38.3225H51.1404Z" fill="white"/>
<path d="M77.4012 31.961C76.3046 31.7124 75.5852 31.5556 75.2036 31.4817C74.7731 31.3985 74.2914 31.3424 73.7708 31.3148C73.2501 31.288 72.9093 31.2755 72.6985 31.2755C71.0323 31.2755 69.406 31.6352 67.8645 32.3445C66.332 33.0501 64.9775 34.0403 63.8382 35.2876C62.7061 36.5277 61.8051 37.9876 61.16 39.6268C60.514 41.2691 60.1865 43.0019 60.1865 44.7773C60.1865 46.1598 60.3807 47.4429 60.7637 48.5904C61.1539 49.7619 61.7041 50.7582 62.3986 51.5508C63.1017 52.3547 63.9402 52.9738 64.8905 53.3909C65.8353 53.8056 66.8486 54.0158 67.9024 54.0158C69.4815 54.0158 70.821 53.6765 71.884 53.0072C72.0775 52.8853 72.2665 52.7517 72.4508 52.6064L70.9506 61.3623C70.9506 61.3623 70.5593 63.0071 74.584 63.0071C78.0942 63.0071 78.22 61.3623 78.22 61.3623L83.3966 31.961C83.3966 31.961 82.7988 31.281 80.6471 31.281C78.8415 31.281 77.4012 31.961 77.4012 31.961ZM68.7691 46.0276C68.5399 45.5079 68.4238 44.8695 68.4238 44.1302C68.4238 43.4524 68.534 42.7261 68.7517 41.9711C68.9629 41.2368 69.2891 40.5668 69.7211 39.9796C70.1394 39.4115 70.6546 38.9554 71.2519 38.6245C71.8375 38.3002 72.485 38.1426 73.2315 38.1426C73.5314 38.1426 73.9015 38.1827 74.3303 38.2613C74.4354 38.2808 74.5296 38.3002 74.614 38.3195L73.7883 43.108L73.7881 43.1093C73.6298 44.0359 73.3355 44.8551 72.9134 45.5439C72.519 46.1874 72.0992 46.6234 71.665 46.8403C71.2049 47.0704 70.797 47.187 70.4527 47.187C70.1354 47.187 69.8193 47.1014 69.4855 46.9251C69.2074 46.7784 68.9665 46.4768 68.7691 46.0276V46.0276Z" fill="white"/>
<path d="M103.111 48.0496L106.039 31.7381C106.039 31.7381 105.872 31.1115 101.985 31.1115C98.236 31.1115 98.0421 31.7381 98.0421 31.7381L96.0058 43.0603C95.8484 43.9817 95.589 44.7316 95.2346 45.2897C94.8992 45.8189 94.5016 46.2107 94.0528 46.4545C93.5957 46.7031 93.135 46.8239 92.6444 46.8239C92.0642 46.8239 91.8218 46.6077 91.6897 46.4445C91.4848 46.1921 91.4414 45.6663 91.5651 44.9776L93.0482 37.4087C93.4728 35.3919 93.2538 33.8342 92.3975 32.7788C91.5909 31.7848 90.2641 31.2809 88.4541 31.2809C86.8369 31.2809 83.3964 31.9608 83.3964 31.9608L82.3616 37.8381L84.0196 37.5097C84.355 37.426 84.6934 37.3835 85.0254 37.3835C85.053 37.3835 85.0768 37.3845 85.0973 37.3858C85.0952 37.4277 85.0894 37.4837 85.0759 37.5558L83.5527 45.4391C83.2776 46.8399 83.2455 48.1007 83.457 49.1864C83.6767 50.3137 84.1097 51.2531 84.7443 51.9786C85.3768 52.7012 86.1867 53.2403 87.1513 53.5809C88.0681 53.9049 89.0831 54.0692 90.1683 54.0692C91.3705 54.0692 92.502 53.8547 93.5313 53.4317C94.4949 53.0357 95.2935 52.4937 95.9092 51.8185C95.9653 51.9907 96.0334 52.1525 96.1139 52.3046C96.4554 52.9523 96.9943 53.4233 97.7151 53.7041C98.3444 53.9498 99.1157 54.0692 100.073 54.0692C100.708 54.0692 101.365 54.0065 102.026 53.8828C102.721 53.7524 103.269 53.5839 103.704 53.3675C103.704 53.3675 105.238 52.5255 105.53 50.8882C105.78 49.4861 105.541 48.8454 105.017 48.464C104.623 48.1773 103.094 48.1511 103.094 48.1511C103.097 48.1235 103.102 48.0899 103.111 48.0496V48.0496Z" fill="white"/>
<path d="M122.63 45.4771C122.114 45.7238 121.333 46.224 120.477 46.5204C119.593 46.8262 118.649 46.9813 117.67 46.9813C115.995 46.9813 115.155 46.5205 114.717 45.9598C116.022 45.8934 117.296 45.7273 118.518 45.4635C120.165 45.1075 121.659 44.5705 122.959 43.8674C124.311 43.1365 125.398 42.18 126.192 41.0241C127.005 39.8405 127.432 38.4779 127.46 36.9825C127.49 35.9146 127.184 34.906 126.55 33.9844C125.918 33.0663 124.961 32.3713 123.706 31.9183C122.532 31.4954 121.238 31.281 119.86 31.281C117.89 31.281 116.042 31.6339 114.369 32.3301C112.689 33.0292 111.248 34 110.088 35.2149C108.931 36.4256 108.037 37.8311 107.431 39.3931C106.829 40.9444 106.51 42.5582 106.484 44.1864C106.457 45.5969 106.665 46.9287 107.102 48.1443C107.547 49.3816 108.219 50.4563 109.102 51.3387C109.983 52.2196 111.081 52.9044 112.367 53.3741C113.629 53.8354 115.058 54.0693 116.614 54.0693C118.338 54.0693 120.007 53.7996 121.577 53.2677C122.398 52.9896 123.191 52.6285 123.935 52.1839C124.429 51.8888 124.957 51.6253 125.364 51.2092C125.958 50.6002 125.977 49.821 125.976 49.0184C125.975 48.3548 125.88 47.6765 125.582 47.0767C124.727 45.3583 123.421 45.0983 122.63 45.4771ZM115.212 40.6157C115.39 40.3615 115.59 40.1216 115.81 39.8972C116.366 39.3311 116.963 38.9336 117.585 38.7158C118.242 38.4859 118.842 38.3692 119.369 38.3692C119.966 38.3692 120.2 38.4799 120.273 38.5275C120.312 38.5528 120.335 38.5681 120.335 38.6937C120.335 39.0151 119.923 39.3144 119.577 39.5087C118.864 39.9097 117.951 40.2057 116.863 40.3889C116.292 40.4853 115.74 40.561 115.212 40.6157Z" fill="white"/>
<path d="M139.745 29.0136C140.182 26.8262 140.059 25.1897 139.367 24.0103C138.628 22.7512 137.232 22.1128 135.216 22.1128C133.737 22.1128 132.332 22.1905 131.148 22.6553C130.398 22.9498 129.497 23.3326 129.084 25.5975C128.877 26.7386 128.684 29.0481 129.65 29.4184C130.01 29.5561 130.804 29.2824 130.804 29.2824C130.992 29.2141 131.218 29.1795 131.476 29.1795C131.479 29.1795 131.482 29.1795 131.485 29.1796C131.484 29.2148 131.478 29.2656 131.464 29.3354L127.919 47.8012C127.619 49.3906 127.768 50.6993 128.36 51.6903C128.952 52.6821 129.745 53.3437 130.718 53.6569C131.569 53.9306 132.348 54.0693 133.034 54.0693C133.64 54.0693 134.245 54.0234 134.845 53.9438C135.384 53.8723 135.952 53.8486 136.456 53.6263C137.454 53.1856 138.042 52.1916 138.357 51.189C138.722 50.0261 138.994 48.6889 138.573 47.5041C138.328 46.8147 137.807 46.8559 137.178 46.9079C137.09 46.9152 136.325 46.9648 136.312 47.0334C136.313 47.0294 136.314 47.0253 136.314 47.0211L139.745 29.0136H139.745Z" fill="white"/>
<path d="M9.72267 20.2297C9.72267 20.2297 8.36089 19.5541 4.12381 18.5085C2.1253 18.0153 0.59529 20.2728 0.154225 25.345C-0.286841 30.4172 0.0358302 32.6042 3.57248 33.2842C5.02191 33.5628 9.04085 31.5208 11.8242 28.0465C15.0404 24.0319 16.9696 18.4173 17.2455 17.3139C17.7601 15.2556 17.2455 9.44828 15.8488 6.58136C14.4521 3.71444 11.966 -0.312998 10.5319 0.0193146C7.90962 0.626982 9.60037 6.8754 8.46418 8.71253C7.51079 10.2541 4.60163 12.7298 4.60163 14.2753C4.60163 15.819 6.73344 16.6483 9.72267 20.2297V20.2297Z" fill="white"/>
<path d="M11.2912 27.6606C11.2912 27.6606 8.09351 25.4002 5.72271 27.6607C4.42081 28.9021 3.47846 30.4438 2.64877 32.0256C1.90418 33.4451 -1.41188 38.039 1.7532 38.7424C3.73799 39.1835 10.6296 36.8269 15.5365 31.2789C20.4433 25.731 18.9255 25.1589 19.757 23.366C20.6723 21.3924 21.987 19.5011 21.7114 15.3664C21.6353 14.2244 21.479 10.6961 19.5505 12.134C18.6164 12.8303 18.1129 13.9898 17.5608 14.9779C16.8226 16.2993 16.0018 17.5917 14.8197 18.5637C12.7752 20.2448 10.1654 22.3679 10.1102 23.6359C10.0551 24.904 10.0232 25.3451 11.2912 27.6606V27.6606Z" fill="white"/>
<path d="M83.1885 60.9719H86.6862C87.3907 60.9719 88.0356 61.0663 88.6211 61.2546C89.2064 61.4433 89.7099 61.7211 90.1319 62.0882C90.5534 62.4553 90.8783 62.9142 91.1067 63.4649C91.3349 64.0156 91.449 64.6384 91.449 65.3328C91.449 66.1565 91.3002 66.9402 91.0025 67.6845C90.7049 68.4286 90.2707 69.0761 89.7002 69.6267C89.1295 70.1774 88.435 70.609 87.6165 70.9216C86.7979 71.2341 85.8923 71.3905 84.9002 71.3905H81.3578L83.1885 60.9719V60.9719ZM85.3765 63.2788L84.3495 69.0984H85.3765C85.7337 69.0984 86.1057 69.0339 86.4928 68.9048C86.8797 68.7761 87.2343 68.5603 87.5569 68.2575C87.8792 67.9548 88.1497 67.563 88.3681 67.0816C88.5862 66.6005 88.6956 66.0572 88.6956 65.4519C88.6956 64.0033 87.9314 63.2789 86.4035 63.2789H85.3765L85.3765 63.2788Z" fill="white"/>
<path d="M94.6396 71.3905H92.0944L93.925 60.9719H96.4702L94.6396 71.3905Z" fill="white"/>
<path d="M106.456 65.199L105.623 70.1255C105.077 70.592 104.419 70.9591 103.651 71.227C102.881 71.4949 102.1 71.6288 101.306 71.6288C100.711 71.6288 100.14 71.5444 99.5947 71.3758C99.0489 71.2072 98.5678 70.9467 98.151 70.5944C97.7342 70.2423 97.4043 69.7883 97.1612 69.2325C96.918 68.6769 96.7966 68.037 96.7966 67.3125C96.7966 66.5386 96.9305 65.7623 97.1984 64.9832C97.4663 64.2044 97.8682 63.49 98.404 62.84C98.9399 62.1902 99.6097 61.6716 100.413 61.2847C101.217 60.8976 102.125 60.7042 103.137 60.7042C103.921 60.7042 104.623 60.8158 105.243 61.0391C105.863 61.2623 106.382 61.5476 106.798 61.8949L105.31 63.7405C104.685 63.294 103.941 63.0707 103.078 63.0707C102.641 63.0707 102.204 63.1477 101.768 63.3014C101.331 63.4554 100.949 63.7058 100.622 64.053C100.294 64.4005 100.031 64.822 99.8329 65.3182C99.6342 65.8144 99.5352 66.36 99.5352 66.9553C99.5352 67.7196 99.7187 68.2948 100.086 68.6818C100.453 69.0688 100.984 69.2623 101.678 69.2623C102.016 69.2623 102.333 69.2102 102.631 69.106C102.929 69.0018 103.172 68.8853 103.36 68.7563L103.673 67.2381H101.455L101.812 65.199H106.456H106.456Z" fill="white"/>
<path d="M109.726 71.3905H107.18L109.011 60.9719H111.556L109.726 71.3905Z" fill="white"/>
<path d="M121.212 63.1449H118.176L116.732 71.3905H114.187L115.63 63.1449H112.579L112.966 60.9719H121.599L121.212 63.1449Z" fill="white"/>
<path d="M126.633 69.5747H122.852L121.944 71.3905H119.25L124.995 60.9719H127.481L129.699 71.3905H126.945L126.633 69.5747ZM126.305 67.5802L125.71 63.9486L123.864 67.5802H126.305Z" fill="white"/>
<path d="M134.183 69.0984H138.902L138.515 71.3905H131.236L133.067 60.9719H135.612L134.183 69.0984Z" fill="white"/>
</svg>
