<svg width="16" height="16" viewBox="0 0 16 16" fill="none" xmlns="http://www.w3.org/2000/svg">
<path d="M4.93464 1.4865C5.27785 1.82952 5.6223 2.17158 5.96398 2.51611C6.5665 3.12387 6.56772 3.83266 5.96752 4.43575C5.537 4.86838 5.10895 5.30347 4.67013 5.72738C4.55409 5.83918 4.54497 5.93137 4.60381 6.07231C4.89199 6.76436 5.30862 7.37715 5.77739 7.95343C6.71957 9.11161 7.78531 10.1396 9.05614 10.9373C9.32825 11.1081 9.62937 11.2325 9.91293 11.3863C10.0588 11.4654 10.1588 11.4402 10.2755 11.3195C10.7047 10.8758 11.1445 10.4419 11.5832 10.0071C12.1578 9.4379 12.8791 9.43668 13.4563 10.0083C14.1615 10.7068 14.8636 11.4086 15.5628 12.1131C16.1494 12.7038 16.1447 13.4258 15.5548 14.0207C15.1563 14.4229 14.7352 14.8045 14.3583 15.2259C13.8099 15.8391 13.1218 16.0376 12.3348 15.9943C11.1909 15.9314 10.1355 15.5519 9.11919 15.058C6.86013 13.9603 4.92902 12.4389 3.31334 10.516C2.11876 9.09446 1.13164 7.54723 0.482405 5.79966C0.168476 4.95443 -0.0559585 4.08891 0.0122739 3.17326C0.0544929 2.60827 0.266686 2.12771 0.683162 1.73131C1.13028 1.30549 1.55631 0.857736 1.99677 0.424731C2.57355 -0.142453 3.29496 -0.141198 3.87311 0.426229C4.23006 0.776614 4.58092 1.13272 4.93446 1.4862L4.93464 1.4865Z" fill="white"/>
</svg>
