<svg width="24" height="24" viewBox="0 0 24 24" fill="none" xmlns="http://www.w3.org/2000/svg">
<path fill-rule="evenodd" clip-rule="evenodd" d="M22.4 12C22.4 17.7438 17.7438 22.4 12 22.4C6.25624 22.4 1.6 17.7438 1.6 12C1.6 6.25624 6.25624 1.6 12 1.6C17.7438 1.6 22.4 6.25624 22.4 12ZM24 12C24 18.6274 18.6274 24 12 24C5.37258 24 0 18.6274 0 12C0 5.37258 5.37258 0 12 0C18.6274 0 24 5.37258 24 12ZM17.51 7.38386C17.8503 7.66566 17.8977 8.16996 17.6159 8.51026L10.9914 16.5103C10.8926 16.6296 10.7664 16.7129 10.6296 16.7586C10.47 16.8122 10.2979 16.8134 10.139 16.7646C9.99733 16.721 9.86609 16.6376 9.7634 16.5159L6.38875 12.5159C6.10385 12.1782 6.14665 11.6735 6.48435 11.3886C6.82205 11.1037 7.32677 11.1465 7.61167 11.4842L10.3693 14.7528L16.3836 7.4898C16.6654 7.1495 17.1697 7.10207 17.51 7.38386Z" fill="white"/>
</svg>
