<?xml version="1.0" encoding="utf-8"?>
<!-- Generator: Adobe Illustrator 27.4.0, SVG Export Plug-In . SVG Version: 6.00 Build 0)  -->
<svg version="1.1" id="Capa_1" xmlns="http://www.w3.org/2000/svg" xmlns:xlink="http://www.w3.org/1999/xlink" x="0px" y="0px"
	 viewBox="0 0 64 64" style="enable-background:new 0 0 64 64;" xml:space="preserve">
<style type="text/css">
	.st0{fill:#FFFFFF;}
	.st1{fill:#2F2F2F;}
</style>
<g>
	<circle class="st0" cx="32" cy="32" r="32"/>
	<path class="st1" d="M26.3,42.3c-2.1,0-3.7,1.7-3.7,3.8s1.7,3.8,3.7,3.8c2.1,0,3.7-1.7,3.7-3.8C30.1,43.9,28.4,42.3,26.3,42.3z
		 M27.7,47.4c-0.4,0.4-0.8,0.6-1.3,0.6c-1,0-1.9-0.9-1.9-1.9s0.9-1.9,1.9-1.9s1.9,0.9,1.9,1.9C28.2,46.5,28,47,27.7,47.4z"/>
	<path class="st1" d="M41,42.3c-2.1,0-3.7,1.7-3.7,3.8s1.7,3.8,3.7,3.8c2.1,0,3.7-1.7,3.7-3.8S43.1,42.3,41,42.3z M41,47.9
		c-1,0-1.9-0.9-1.9-1.9s0.9-1.9,1.9-1.9s1.9,0.9,1.9,1.9S42,47.9,41,47.9z"/>
	<path class="st1" d="M47.6,20.7c-0.2-0.2-0.4-0.4-0.7-0.4H19.3l-5.5-5.9c-0.2-0.2-0.4-0.3-0.6-0.3c0,0,0,0,0,0
		c-0.2,0-0.5,0.1-0.6,0.3c-0.4,0.4-0.4,0.9,0,1.3l5.6,6l0,0.1l4.1,17.8c0.1,0.4,0.5,0.7,0.9,0.7h20.4c0.5,0,0.9-0.4,0.9-0.9
		s-0.4-0.9-0.9-0.9l-19.7,0L23.2,36h20.1c0.4,0,0.8-0.3,0.9-0.7l3.6-13.8C47.8,21.3,47.8,21,47.6,20.7L47.6,20.7z M42.6,34.2H22.8
		l-2.7-11.9h25.6L42.6,34.2z"/>
</g>
</svg>
