<svg width="40" height="40" viewBox="0 0 40 40" fill="none" xmlns="http://www.w3.org/2000/svg">
<circle cx="20" cy="20" r="20" fill="#FFD8D8"/>
<path fill-rule="evenodd" clip-rule="evenodd" d="M23.4531 12.7149H29.0818H29.0821C29.356 12.7149 29.6051 12.939 29.6053 13.2131C29.6053 13.4871 29.3811 13.7113 29.1071 13.7113H27.6128L26.5168 28.157C26.442 29.203 25.5703 30 24.5243 30H15.8319C14.7859 30 13.9141 29.1782 13.8394 28.157L12.7434 13.7113H11.4982C11.2242 13.7113 11 13.4871 11 13.2131C11 12.9391 11.2242 12.7149 11.4982 12.7149L16.878 12.7147V11.7434C16.878 10.7721 17.6501 10 18.6214 10L21.7097 10.0002C22.681 10.0002 23.4531 10.7723 23.4531 11.7436V12.7149ZM18.6214 10.9962C18.198 10.9962 17.8742 11.32 17.8742 11.7434V12.7149L22.4821 12.7147V11.7434C22.4821 11.32 22.1582 10.9962 21.7348 10.9962H18.6214ZM24.4994 28.9788C25.0225 28.9788 25.4457 28.5802 25.4956 28.0572L26.6164 13.6863H13.7398L14.8358 28.057C14.8855 28.5801 15.3089 28.9787 15.8319 28.9787L24.4994 28.9788ZM19.667 16.7749C19.667 16.501 19.8912 16.2768 20.1652 16.2768C20.4391 16.2768 20.6632 16.501 20.6632 16.7749L20.6634 25.9655C20.6634 26.2394 20.4391 26.4637 20.1652 26.4637C19.8912 26.4637 19.667 26.2394 19.667 25.9655V16.7749ZM22.9055 16.7497L22.4073 25.9402C22.3825 26.2141 22.6065 26.4384 22.8804 26.4632H22.9053C23.1793 26.4632 23.3784 26.264 23.4035 25.9901L23.9017 16.7996C23.9265 16.5256 23.7025 16.3014 23.4286 16.2766C23.1546 16.2764 22.9304 16.4758 22.9055 16.7497ZM16.4297 16.7998C16.4297 16.5258 16.6289 16.3016 16.9028 16.2768C17.1768 16.2768 17.401 16.4761 17.4259 16.7499L17.924 25.9404C17.924 26.2143 17.7249 26.4386 17.4509 26.4634H17.4261C17.1521 26.4634 16.9527 26.2643 16.9279 25.9903L16.4297 16.7998Z" fill="#E61C1C"/>
<path d="M23.4531 12.7149H23.2531V12.9149H23.4531V12.7149ZM29.6053 13.2131H29.8053V13.213L29.6053 13.2131ZM27.6128 13.7113V13.5113H27.4274L27.4133 13.6962L27.6128 13.7113ZM26.5168 28.157L26.3174 28.1418L26.3173 28.1427L26.5168 28.157ZM13.8394 28.157L14.0389 28.1424L14.0388 28.1418L13.8394 28.157ZM12.7434 13.7113L12.9429 13.6962L12.9288 13.5113H12.7434V13.7113ZM11.4982 12.7149V12.9149H11.4982L11.4982 12.7149ZM16.878 12.7147L16.878 12.9147L17.078 12.9147V12.7147H16.878ZM18.6214 10L18.6214 9.8H18.6214V10ZM21.7097 10.0002L21.7097 10.2002H21.7097V10.0002ZM17.8742 12.7149H17.6742V12.9149L17.8742 12.9149L17.8742 12.7149ZM22.4821 12.7147L22.4821 12.9147L22.6821 12.9147V12.7147H22.4821ZM25.4956 28.0572L25.6947 28.0762L25.695 28.0728L25.4956 28.0572ZM24.4994 28.9788L24.4994 29.1788H24.4994V28.9788ZM26.6164 13.6863L26.8158 13.7019L26.8326 13.4863H26.6164V13.6863ZM13.7398 13.6863V13.4863H13.524L13.5404 13.7015L13.7398 13.6863ZM14.8358 28.057L14.6363 28.0722L14.6367 28.0759L14.8358 28.057ZM15.8319 28.9787L15.8319 28.7787H15.8319V28.9787ZM20.6632 16.7749H20.4632V16.7749L20.6632 16.7749ZM20.6634 25.9655H20.8634V25.9655L20.6634 25.9655ZM22.4073 25.9402L22.6066 25.9583L22.607 25.951L22.4073 25.9402ZM22.9055 16.7497L22.7062 16.7316L22.7058 16.7389L22.9055 16.7497ZM22.8804 26.4632L22.8624 26.6624L22.8714 26.6632H22.8804V26.4632ZM23.4035 25.9901L23.6028 26.0083L23.6032 26.0009L23.4035 25.9901ZM23.9017 16.7996L23.7024 16.7815L23.702 16.7888L23.9017 16.7996ZM23.4286 16.2766L23.4466 16.0774L23.4377 16.0766L23.4287 16.0766L23.4286 16.2766ZM16.9028 16.2768V16.0768H16.8938L16.8847 16.0776L16.9028 16.2768ZM16.4297 16.7998H16.2294L16.23 16.8106L16.4297 16.7998ZM17.4259 16.7499L17.6257 16.739L17.625 16.7318L17.4259 16.7499ZM17.924 25.9404H18.1243L18.1238 25.9296L17.924 25.9404ZM17.4509 26.4634V26.6634H17.46L17.469 26.6626L17.4509 26.4634ZM16.9279 25.9903L16.728 26.0011L16.7287 26.0084L16.9279 25.9903ZM29.0818 12.5149H23.4531V12.9149H29.0818V12.5149ZM29.0821 12.5149H29.0818V12.9149H29.0821V12.5149ZM29.8053 13.213C29.805 12.8162 29.4537 12.5149 29.0821 12.5149V12.9149C29.2583 12.9149 29.4052 13.0618 29.4053 13.2132L29.8053 13.213ZM29.1071 13.9113C29.4915 13.9113 29.8053 13.5975 29.8053 13.2131H29.4053C29.4053 13.3766 29.2706 13.5113 29.1071 13.5113V13.9113ZM27.6128 13.9113H29.1071V13.5113H27.6128V13.9113ZM26.7162 28.1721L27.8122 13.7264L27.4133 13.6962L26.3174 28.1418L26.7162 28.1721ZM24.5243 30.2C25.6734 30.2 26.6339 29.3238 26.7163 28.1712L26.3173 28.1427C26.2502 29.0823 25.4672 29.8 24.5243 29.8V30.2ZM15.8319 30.2H24.5243V29.8H15.8319V30.2ZM13.6399 28.1716C13.7223 29.2971 14.6809 30.2 15.8319 30.2V29.8C14.8908 29.8 14.106 29.0592 14.0389 28.1424L13.6399 28.1716ZM12.544 13.7264L13.64 28.1721L14.0388 28.1418L12.9429 13.6962L12.544 13.7264ZM11.4982 13.9113H12.7434V13.5113H11.4982V13.9113ZM10.8 13.2131C10.8 13.5975 11.1138 13.9113 11.4982 13.9113V13.5113C11.3347 13.5113 11.2 13.3766 11.2 13.2131H10.8ZM11.4982 12.5149C11.1138 12.5149 10.8 12.8287 10.8 13.2131H11.2C11.2 13.0496 11.3347 12.9149 11.4982 12.9149V12.5149ZM16.878 12.5147L11.4982 12.5149L11.4982 12.9149L16.878 12.9147L16.878 12.5147ZM16.678 11.7434V12.7147H17.078V11.7434H16.678ZM18.6214 9.8C17.5397 9.8 16.678 10.6617 16.678 11.7434H17.078C17.078 10.8826 17.7606 10.2 18.6214 10.2V9.8ZM21.7097 9.80017L18.6214 9.8L18.6214 10.2L21.7097 10.2002L21.7097 9.80017ZM23.6531 11.7436C23.6531 10.6618 22.7915 9.80017 21.7097 9.80017V10.2002C22.5706 10.2002 23.2531 10.8828 23.2531 11.7436H23.6531ZM23.6531 12.7149V11.7436H23.2531V12.7149H23.6531ZM18.0742 11.7434C18.0742 11.4305 18.3084 11.1962 18.6214 11.1962V10.7962C18.0875 10.7962 17.6742 11.2096 17.6742 11.7434H18.0742ZM18.0742 12.7149V11.7434H17.6742V12.7149H18.0742ZM22.482 12.5147L17.8741 12.5149L17.8742 12.9149L22.4821 12.9147L22.482 12.5147ZM22.2821 11.7434V12.7147H22.6821V11.7434H22.2821ZM21.7348 11.1962C22.0477 11.1962 22.2821 11.4304 22.2821 11.7434H22.6821C22.6821 11.2095 22.2687 10.7962 21.7348 10.7962V11.1962ZM18.6214 11.1962H21.7348V10.7962H18.6214V11.1962ZM25.2965 28.0382C25.256 28.4627 24.9153 28.7788 24.4994 28.7788V29.1788C25.1296 29.1788 25.6354 28.6978 25.6947 28.0762L25.2965 28.0382ZM26.417 13.6708L25.2962 28.0417L25.695 28.0728L26.8158 13.7019L26.417 13.6708ZM13.7398 13.8863H26.6164V13.4863H13.7398V13.8863ZM15.0352 28.0418L13.9392 13.6711L13.5404 13.7015L14.6364 28.0722L15.0352 28.0418ZM15.8319 28.7787C15.416 28.7787 15.0752 28.4625 15.0349 28.0381L14.6367 28.0759C14.6957 28.6977 15.2018 29.1787 15.8319 29.1787V28.7787ZM24.4994 28.7788L15.8319 28.7787L15.8319 29.1787L24.4994 29.1788L24.4994 28.7788ZM20.1652 16.0768C19.7808 16.0768 19.467 16.3905 19.467 16.7749H19.867C19.867 16.6114 20.0017 16.4768 20.1652 16.4768V16.0768ZM20.8632 16.7749C20.8632 16.3906 20.5497 16.0768 20.1652 16.0768V16.4768C20.3286 16.4768 20.4632 16.6114 20.4632 16.7749H20.8632ZM20.8634 25.9655L20.8632 16.7749L20.4632 16.7749L20.4634 25.9655L20.8634 25.9655ZM20.1652 26.6637C20.5496 26.6637 20.8634 26.3499 20.8634 25.9655H20.4634C20.4634 26.129 20.3287 26.2637 20.1652 26.2637V26.6637ZM19.467 25.9655C19.467 26.3499 19.7808 26.6637 20.1652 26.6637V26.2637C20.0017 26.2637 19.867 26.129 19.867 25.9655H19.467ZM19.467 16.7749V25.9655H19.867V16.7749H19.467ZM22.607 25.951L23.1052 16.7605L22.7058 16.7389L22.2076 25.9294L22.607 25.951ZM22.8985 26.264C22.7131 26.2472 22.5935 26.1018 22.6065 25.9583L22.2081 25.9221C22.1715 26.3264 22.5 26.6295 22.8624 26.6624L22.8985 26.264ZM22.9053 26.2632H22.8804V26.6632H22.9053V26.2632ZM23.2043 25.9719C23.1878 26.1528 23.0661 26.2632 22.9053 26.2632V26.6632C23.2924 26.6632 23.5691 26.3752 23.6027 26.0083L23.2043 25.9719ZM23.702 16.7888L23.2038 25.9793L23.6032 26.0009L24.1014 16.8104L23.702 16.7888ZM23.4105 16.4757C23.5959 16.4926 23.7155 16.6379 23.7025 16.7815L24.1009 16.8177C24.1375 16.4133 23.809 16.1102 23.4466 16.0774L23.4105 16.4757ZM23.1047 16.7677C23.12 16.5994 23.2554 16.4764 23.4284 16.4766L23.4287 16.0766C23.0538 16.0763 22.7408 16.3521 22.7063 16.7316L23.1047 16.7677ZM16.8847 16.0776C16.5051 16.112 16.2297 16.4251 16.2297 16.7998H16.6297C16.6297 16.6266 16.7527 16.4912 16.9209 16.4759L16.8847 16.0776ZM17.625 16.7318C17.5906 16.3524 17.2775 16.0768 16.9028 16.0768V16.4768C17.076 16.4768 17.2114 16.5999 17.2267 16.768L17.625 16.7318ZM18.1238 25.9296L17.6256 16.7391L17.2262 16.7607L17.7243 25.9512L18.1238 25.9296ZM17.469 26.6626C17.8487 26.6282 18.124 26.3151 18.124 25.9404H17.724C17.724 26.1136 17.6011 26.249 17.4328 26.2643L17.469 26.6626ZM17.4261 26.6634H17.4509V26.2634H17.4261V26.6634ZM16.7287 26.0084C16.762 26.3756 17.0391 26.6634 17.4261 26.6634V26.2634C17.2651 26.2634 17.1435 26.1529 17.1271 25.9722L16.7287 26.0084ZM16.23 16.8106L16.7282 26.0011L17.1276 25.9795L16.6294 16.789L16.23 16.8106Z" fill="#E61C1C"/>
</svg>
