<svg width="168" height="86" viewBox="0 0 168 86" fill="none" xmlns="http://www.w3.org/2000/svg">
<path d="M43.2462 47.377C44.7267 45.0382 45.4774 42.4848 45.4774 39.7877C45.4774 36.4908 44.3189 33.9673 42.0343 32.2871C39.8466 30.6783 36.588 29.8626 32.3487 29.8626H18.6769L12.5234 64.8832C12.5234 64.8832 11.8513 65.5889 17.3866 65.5889C22.6684 65.5889 22.6531 64.8832 22.6531 64.8832L24.4905 54.3771H27.7138C27.7138 54.3771 30.9738 65.5889 39.4934 69.9113C46.6714 73.553 54.3921 69.9113 54.3921 69.9113C41.4027 64.6847 37.6524 52.3431 37.6524 52.3431C40.0481 51.128 41.9268 49.461 43.2462 47.377ZM27.2672 38.7826H30.7469C32.6098 38.7826 33.4948 39.1478 33.9083 39.4537C34.2366 39.6969 34.6729 40.1476 34.6729 41.2482C34.6729 41.9466 34.4812 42.6078 34.0867 43.2694C33.6982 43.9211 33.119 44.4331 32.316 44.8348C31.4906 45.2477 30.4237 45.457 29.1451 45.457H26.0765L27.2672 38.7826H27.2672Z" fill="#1C714B"/>
<path d="M68.4877 57.3939L71.9128 38.3599C71.9128 38.3599 71.1788 37.5372 68.4629 37.5372C65.4228 37.5372 64.7146 38.3599 64.7146 38.3599C62.9725 37.9346 61.7693 37.6959 61.0383 37.6305C60.3216 37.567 59.6513 37.5347 59.0459 37.5347C57.0389 37.5347 55.0874 37.9764 53.2451 38.8478C51.419 39.7122 49.7995 40.9184 48.4316 42.4328C47.0708 43.9398 45.9877 45.7108 45.2125 47.6968C44.4363 49.6866 44.0427 51.7934 44.0427 53.9588C44.0427 55.5889 44.2681 57.0999 44.7128 58.4495C45.1661 59.8271 45.8122 61.0024 46.6326 61.9423C47.4623 62.8938 48.4626 63.6304 49.6057 64.1321C50.7412 64.6305 51.9747 64.8832 53.2717 64.8832C55.1388 64.8832 56.7482 64.4683 58.0551 63.6499C58.7145 63.237 59.3328 62.721 59.9053 62.1068C60.1192 62.6331 60.4144 63.0876 60.7903 63.4676C61.6591 64.3461 62.9224 64.7915 64.5449 64.7915C66.3535 64.7915 68.0017 64.7464 69.1097 64.0253C70.2224 63.3013 70.7313 62.2428 70.8898 60.9222C70.998 60.0205 71.0511 58.4482 70.8548 58.1901C70.4356 57.6387 68.4619 57.7362 68.4619 57.7362C68.4557 57.6768 68.455 57.5687 68.4877 57.3939V57.3939ZM61.3685 45.9869L60.3736 51.7579C60.2341 52.4775 59.9853 53.2702 59.634 54.1136C59.3162 54.8759 58.854 55.4926 58.2213 55.9989C57.6399 56.4643 57.0251 56.6905 56.342 56.6905C55.2194 56.6905 54.7806 56.2479 54.548 55.9143C54.1082 55.2852 53.8852 54.3805 53.8852 53.2253C53.8852 52.3745 54.0189 51.4654 54.2828 50.5227C54.5387 49.6061 54.9333 48.7748 55.4552 48.0519C55.96 47.3531 56.5893 46.7888 57.3251 46.3755C58.0474 45.9704 58.8351 45.7735 59.7332 45.7735C60.0931 45.7735 60.5303 45.8215 61.0308 45.9158C61.1558 45.9395 61.268 45.9634 61.3685 45.9869H61.3685Z" fill="#1C714B"/>
<path d="M92.8814 38.3532C91.5655 38.0549 90.7022 37.8667 90.2443 37.778C89.7276 37.6782 89.1497 37.6109 88.5249 37.5778C87.9 37.5456 87.4911 37.5306 87.2381 37.5306C85.2387 37.5306 83.2871 37.9622 81.4373 38.8135C79.5984 39.6601 77.9729 40.8483 76.6058 42.3452C75.2473 43.8332 74.1661 45.5851 73.392 47.5522C72.6168 49.5229 72.2237 51.6023 72.2237 53.7328C72.2237 55.3918 72.4568 56.9315 72.9164 58.3085C73.3846 59.7143 74.0449 60.9098 74.8783 61.861C75.722 62.8256 76.7281 63.5685 77.8685 64.0691C79.0023 64.5667 80.2183 64.819 81.4828 64.819C83.3777 64.819 84.9851 64.4118 86.2607 63.6087C86.493 63.4623 86.7198 63.302 86.9409 63.1277L85.1406 73.6348C85.1406 73.6348 84.6711 75.6086 89.5008 75.6086C93.7129 75.6086 93.8639 73.6348 93.8639 73.6348L100.076 38.3532C100.076 38.3532 99.3585 37.5372 96.7765 37.5372C94.6097 37.5372 92.8814 38.3532 92.8814 38.3532ZM82.5228 55.2331C82.2479 54.6095 82.1085 53.8434 82.1085 52.9563C82.1085 52.143 82.2408 51.2713 82.502 50.3653C82.7554 49.4842 83.1468 48.6801 83.6653 47.9756C84.1672 47.2938 84.7854 46.7465 85.5022 46.3494C86.2049 45.9603 86.9819 45.7712 87.8777 45.7712C88.2377 45.7712 88.6817 45.8192 89.1963 45.9136C89.3225 45.937 89.4354 45.9603 89.5367 45.9834L88.5459 51.7296L88.5457 51.7312C88.3557 52.8431 88.0025 53.8261 87.496 54.6527C87.0228 55.4249 86.519 55.9481 85.9979 56.2084C85.4458 56.4845 84.9563 56.6244 84.5432 56.6244C84.1624 56.6244 83.7831 56.5217 83.3825 56.3101C83.0488 56.1341 82.7598 55.7722 82.5228 55.2331V55.2331Z" fill="#1C714B"/>
<path d="M123.733 57.6596L127.247 38.0857C127.247 38.0857 127.046 37.3338 122.382 37.3338C117.883 37.3338 117.651 38.0857 117.651 38.0857L115.207 51.6724C115.018 52.778 114.707 53.6779 114.282 54.3478C113.879 54.9828 113.402 55.4529 112.864 55.7455C112.315 56.0438 111.762 56.1887 111.173 56.1887C110.477 56.1887 110.186 55.9293 110.028 55.7335C109.782 55.4306 109.73 54.7996 109.878 53.9731L111.658 44.8905C112.167 42.4703 111.905 40.6011 110.877 39.3347C109.909 38.1419 108.317 37.5371 106.145 37.5371C104.204 37.5371 100.076 38.3531 100.076 38.3531L98.834 45.4057L100.824 45.0117C101.226 44.9113 101.632 44.8603 102.031 44.8603C102.064 44.8603 102.092 44.8614 102.117 44.863C102.114 44.9133 102.107 44.9805 102.091 45.0671L100.263 54.5269C99.9333 56.2079 99.8947 57.7209 100.149 59.0238C100.412 60.3765 100.932 61.5038 101.693 62.3743C102.452 63.2415 103.424 63.8884 104.582 64.2971C105.682 64.686 106.9 64.8831 108.202 64.8831C109.645 64.8831 111.002 64.6257 112.238 64.1181C113.394 63.6429 114.352 62.9925 115.091 62.1822C115.158 62.3889 115.24 62.5831 115.337 62.7656C115.747 63.5429 116.393 64.108 117.258 64.445C118.013 64.7398 118.939 64.8831 120.088 64.8831C120.85 64.8831 121.638 64.8078 122.431 64.6594C123.265 64.5029 123.923 64.3007 124.444 64.0411C124.444 64.0411 126.286 63.0306 126.636 61.0659C126.936 59.3833 126.649 58.6145 126.021 58.1569C125.548 57.8128 123.713 57.7814 123.713 57.7814C123.717 57.7483 123.723 57.7079 123.733 57.6596V57.6596Z" fill="#1C714B"/>
<path d="M147.156 54.5726C146.537 54.8686 145.599 55.4689 144.572 55.8245C143.512 56.1915 142.379 56.3776 141.205 56.3776C139.194 56.3776 138.186 55.8246 137.66 55.1518C139.227 55.0721 140.755 54.8727 142.221 54.5562C144.198 54.1291 145.991 53.4846 147.551 52.6409C149.173 51.7639 150.478 50.616 151.431 49.2289C152.406 47.8086 152.918 46.1735 152.952 44.3791C152.989 43.0976 152.621 41.8872 151.86 40.7814C151.101 39.6796 149.953 38.8455 148.448 38.302C147.039 37.7945 145.486 37.5372 143.832 37.5372C141.468 37.5372 139.251 37.9607 137.242 38.7962C135.227 39.6351 133.498 40.8 132.105 42.2579C130.717 43.7107 129.644 45.3974 128.917 47.2717C128.195 49.1333 127.813 51.0699 127.781 53.0238C127.748 54.7163 127.998 56.3145 128.523 57.7732C129.056 59.2579 129.863 60.5476 130.922 61.6065C131.979 62.6636 133.297 63.4854 134.84 64.0489C136.355 64.6025 138.07 64.8832 139.937 64.8832C142.005 64.8832 144.009 64.5596 145.893 63.9213C146.878 63.5875 147.83 63.1543 148.723 62.6207C149.315 62.2666 149.949 61.9504 150.436 61.4511C151.15 60.7203 151.172 59.7853 151.171 58.8221C151.17 58.0258 151.056 57.2118 150.698 56.492C149.673 54.43 148.106 54.118 147.156 54.5726ZM138.255 48.7388C138.469 48.4338 138.708 48.1459 138.972 47.8767C139.639 47.1973 140.355 46.7203 141.102 46.459C141.89 46.1831 142.611 46.0431 143.243 46.0431C143.959 46.0431 144.24 46.1759 144.328 46.233C144.374 46.2634 144.402 46.2818 144.402 46.4324C144.402 46.8182 143.908 47.1773 143.493 47.4105C142.637 47.8916 141.542 48.2469 140.236 48.4667C139.55 48.5824 138.888 48.6733 138.255 48.7388Z" fill="#1C714B"/>
<path d="M167.693 34.8162C168.218 32.1913 168.07 30.2276 167.241 28.8123C166.354 27.3013 164.678 26.5353 162.259 26.5353C160.484 26.5353 158.798 26.6286 157.377 27.1863C156.477 27.5397 155.396 27.9991 154.901 30.7169C154.652 32.0863 154.421 34.8576 155.58 35.302C156.011 35.4672 156.965 35.1388 156.965 35.1388C157.191 35.0569 157.462 35.0153 157.771 35.0153C157.775 35.0153 157.778 35.0153 157.782 35.0154C157.78 35.0577 157.774 35.1186 157.757 35.2024L153.503 57.3613C153.143 59.2686 153.321 60.8391 154.032 62.0283C154.742 63.2184 155.694 64.0123 156.862 64.3882C157.883 64.7166 158.818 64.8831 159.641 64.8831C160.368 64.8831 161.094 64.828 161.814 64.7325C162.46 64.6467 163.143 64.6183 163.747 64.3515C164.944 63.8226 165.65 62.6299 166.028 61.4268C166.466 60.0312 166.793 58.4266 166.288 57.0049C165.994 56.1776 165.369 56.227 164.614 56.2894C164.508 56.2981 163.59 56.3576 163.574 56.44C163.575 56.4352 163.576 56.4303 163.577 56.4252L167.693 34.8162H167.693Z" fill="#1C714B"/>
<path d="M11.6672 24.2756C11.6672 24.2756 10.0331 23.4649 4.94857 22.2102C2.55036 21.6184 0.714348 24.3273 0.18507 30.414C-0.344209 36.5007 0.0429962 39.125 4.28697 39.941C6.02629 40.2754 10.849 37.8249 14.189 33.6558C18.0485 28.8383 20.3636 22.1008 20.6946 20.7767C21.3121 18.3068 20.6946 11.3379 19.0185 7.89763C17.3425 4.45732 14.3592 -0.375598 12.6383 0.0231775C9.49154 0.752378 11.5204 8.25048 10.157 10.455C9.01295 12.3049 5.52196 15.2758 5.52196 17.1303C5.52196 18.9828 8.08013 19.978 11.6672 24.2756V24.2756Z" fill="#1C714B"/>
<path d="M13.5494 33.1926C13.5494 33.1926 9.71212 30.4801 6.86716 33.1927C5.30488 34.6824 4.17406 36.5324 3.17843 38.4305C2.28494 40.1339 -1.69434 45.6467 2.10376 46.4907C4.48551 47.02 12.7555 44.1921 18.6437 37.5346C24.5319 30.877 22.7105 30.1905 23.7083 28.039C24.8067 25.6707 26.3843 23.4012 26.0536 18.4396C25.9623 17.0692 25.7747 12.8352 23.4605 14.5606C22.3396 15.3963 21.7354 16.7876 21.0729 17.9734C20.1871 19.5591 19.2021 21.1099 17.7836 22.2763C15.3301 24.2936 12.1984 26.8413 12.1322 28.363C12.066 29.8846 12.0277 30.4139 13.5494 33.1926V33.1926Z" fill="#32AD4A"/>
<path d="M99.8263 73.1664H104.024C104.869 73.1664 105.643 73.2796 106.345 73.5056C107.048 73.732 107.652 74.0654 108.158 74.5059C108.664 74.9465 109.054 75.4971 109.328 76.1579C109.602 76.8188 109.739 77.5661 109.739 78.3994C109.739 79.3878 109.56 80.3283 109.203 81.2214C108.846 82.1144 108.325 82.8913 107.64 83.5521C106.955 84.213 106.122 84.7309 105.14 85.106C104.158 85.481 103.071 85.6686 101.88 85.6686H97.6295L99.8263 73.1664V73.1664ZM102.452 75.9347L101.22 82.9181H102.452C102.881 82.9181 103.327 82.8408 103.791 82.6859C104.256 82.5313 104.681 82.2724 105.068 81.909C105.455 81.5459 105.78 81.0757 106.042 80.498C106.304 79.9207 106.435 79.2687 106.435 78.5423C106.435 76.804 105.518 75.9347 103.684 75.9347H102.452L102.452 75.9347Z" fill="#1C714B"/>
<path d="M113.567 85.6686H110.513L112.71 73.1664H115.764L113.567 85.6686Z" fill="#1C714B"/>
<path d="M127.747 78.2387L126.747 84.1505C126.092 84.7103 125.303 85.1507 124.381 85.4722C123.458 85.7937 122.52 85.9545 121.568 85.9545C120.853 85.9545 120.168 85.8531 119.514 85.6508C118.859 85.4485 118.281 85.1359 117.781 84.7131C117.281 84.2906 116.885 83.7458 116.594 83.0789C116.302 82.4121 116.156 81.6442 116.156 80.7749C116.156 79.8461 116.317 78.9146 116.638 77.9797C116.96 77.0451 117.442 76.1878 118.085 75.4078C118.728 74.6281 119.532 74.0058 120.496 73.5415C121.461 73.077 122.55 72.8449 123.765 72.8449C124.705 72.8449 125.548 72.9788 126.292 73.2467C127.036 73.5146 127.658 73.857 128.158 74.2737L126.372 76.4884C125.622 75.9526 124.729 75.6847 123.693 75.6847C123.169 75.6847 122.645 75.7771 122.121 75.9615C121.597 76.1463 121.139 76.4468 120.746 76.8635C120.353 77.2804 120.038 77.7863 119.8 78.3816C119.561 78.9771 119.442 79.6318 119.442 80.3462C119.442 81.2633 119.662 81.9537 120.103 82.418C120.543 82.8824 121.181 83.1147 122.014 83.1147C122.419 83.1147 122.8 83.0521 123.157 82.9271C123.515 82.802 123.806 82.6623 124.032 82.5074L124.408 80.6856H121.746L122.175 78.2387H127.747H127.747Z" fill="#1C714B"/>
<path d="M131.671 85.6686H128.617L130.813 73.1664H133.868L131.671 85.6686Z" fill="#1C714B"/>
<path d="M145.454 75.7739H141.811L140.078 85.6686H137.024L138.757 75.7739H135.095L135.559 73.1664H145.918L145.454 75.7739Z" fill="#1C714B"/>
<path d="M151.959 83.4897H147.423L146.333 85.6686H143.1L149.994 73.1664H152.977L155.638 85.6686H152.334L151.959 83.4897ZM151.566 81.0963L150.852 76.7384L148.637 81.0963H151.566Z" fill="#1C714B"/>
<path d="M161.02 82.9181H166.682L166.217 85.6686H157.484L159.68 73.1664H162.735L161.02 82.9181Z" fill="#1C714B"/>
</svg>
