<svg width="36" height="36" viewBox="0 0 36 36" fill="none" xmlns="http://www.w3.org/2000/svg">
<circle cx="18" cy="18" r="18" fill="white"/>
<path d="M27.7498 26.5444L22.6838 21.4785C23.8815 20.0091 24.5332 18.188 24.5332 16.2671C24.5332 14.0589 23.6733 11.9828 22.112 10.4215C20.5504 8.8599 18.4743 8 16.2663 8C14.0584 8 11.982 8.8599 10.421 10.4212C8.8596 11.9825 8 14.0584 8 16.2668C8 18.4747 8.8596 20.5507 10.4212 22.1125C11.982 23.674 14.0585 24.5338 16.2665 24.5338C18.1875 24.5338 20.0084 23.8819 21.4779 22.6843L26.5442 27.7506C26.7103 27.9167 26.9291 28 27.1471 28C27.365 28 27.5838 27.917 27.75 27.7506C28.0833 27.4173 28.0833 26.8774 27.7502 26.5445L27.7498 26.5444ZM11.6268 20.9062C10.3873 19.6668 9.70501 18.0193 9.70501 16.2667C9.70501 14.5142 10.3875 12.8667 11.6268 11.6272C12.8663 10.3878 14.5138 9.70545 16.2663 9.70545C18.0188 9.70545 19.6664 10.3879 20.9059 11.6272C22.1453 12.8664 22.8275 14.514 22.8275 16.2664C22.8275 18.0187 22.1455 19.6661 20.9059 20.9059C19.6662 22.1455 18.0189 22.8279 16.2663 22.8279C14.5138 22.8279 12.8663 22.1451 11.6268 20.906V20.9062Z" fill="#2F2F2F"/>
</svg>
