<svg width="18" height="13" viewBox="0 0 18 13" fill="none" xmlns="http://www.w3.org/2000/svg">
<path d="M15.5982 1H2.40176C1.63257 1 1 1.63155 1 2.39978V11.037C1 11.8052 1.63244 12.4368 2.40176 12.4368H15.5982C16.3674 12.4368 17 11.8053 17 11.037L16.9999 2.39978C16.9999 1.63167 16.3674 1 15.5982 1ZM6.67523 6.59886L1.82057 11.276C1.78635 11.2077 1.7693 11.1224 1.7693 11.037V2.39972V2.34852L6.67523 6.59886ZM9.51285 7.17932C9.23932 7.41829 8.76069 7.41829 8.48715 7.17932L2.29917 1.7853C2.33339 1.7853 2.36749 1.76827 2.41888 1.76827H15.6154C15.6496 1.76827 15.6837 1.76827 15.7351 1.7853L9.51285 7.17932ZM7.23936 7.11098L7.97434 7.75966C8.24787 7.99863 8.60678 8.11818 8.98285 8.11818C9.35891 8.11818 9.71782 7.98161 9.99135 7.74265L10.7263 7.09397L15.4784 11.6686H2.52126L7.23936 7.11098ZM11.3248 6.59886L16.2137 2.33143V2.38263V11.0199C16.2137 11.1053 16.1966 11.1906 16.1624 11.2589L11.3248 6.59886Z" fill="white" stroke="white" stroke-width="0.4"/>
</svg>
