<svg width="28" height="28" viewBox="0 0 28 28" fill="none" xmlns="http://www.w3.org/2000/svg">
<circle cx="14" cy="14" r="14" fill="#E7E7E7"/>
<path fill-rule="evenodd" clip-rule="evenodd" d="M13.85 6C13.3806 6 13 6.38056 13 6.85V13H6.85C6.38056 13 6 13.3806 6 13.85C6 14.3194 6.38056 14.7 6.85 14.7H13V21.15C13 21.6194 13.3806 22 13.85 22C14.3194 22 14.7 21.6194 14.7 21.15V14.7H21.15C21.6194 14.7 22 14.3194 22 13.85C22 13.3806 21.6194 13 21.15 13H14.7V6.85C14.7 6.38056 14.3194 6 13.85 6Z" fill="#2F2F2F"/>
</svg>
