<svg width="16" height="17" viewBox="0 0 16 17" fill="none" xmlns="http://www.w3.org/2000/svg">
<path fill-rule="evenodd" clip-rule="evenodd" d="M8.03349 0C10.1645 0.000942311 12.1646 0.830335 13.6688 2.33556C15.1728 3.8409 16.0007 5.84185 16 7.96992C15.9981 12.3608 12.424 15.9338 8.03349 15.9338H8.03345H8.03007C6.69686 15.9333 5.38677 15.5989 4.22319 14.9644L0 16.0718L1.13019 11.945C0.433105 10.7373 0.0663599 9.36713 0.0668775 7.9635C0.0686427 3.57245 3.64223 0 8.03349 0ZM8.0309 14.5888H8.03349C11.683 14.5888 14.6533 11.6192 14.6549 7.96943C14.6554 6.20062 13.9674 4.53748 12.7173 3.28638C11.467 2.03529 9.80469 1.34587 8.03599 1.34514C4.38359 1.34514 1.41336 4.31434 1.41191 7.96403C1.4114 9.2147 1.76134 10.4327 2.42421 11.4867L2.58181 11.7371L1.91272 14.1797L4.41884 13.5226L4.66075 13.666C5.6772 14.2692 6.84254 14.5882 8.0309 14.5888ZM5.59443 4.29032C5.73628 4.29612 5.89326 4.30276 6.04236 4.63425C6.14424 4.86082 6.31567 5.28315 6.4523 5.61978C6.55303 5.86794 6.63485 6.06953 6.65598 6.11177C6.70574 6.21131 6.73892 6.32753 6.67256 6.46046C6.66262 6.48036 6.65341 6.49914 6.64462 6.51708C6.59477 6.6188 6.55813 6.69356 6.4737 6.79237C6.4406 6.83102 6.40638 6.87265 6.37215 6.91428C6.30345 6.99786 6.23473 7.08145 6.17508 7.14097C6.07522 7.2402 5.97154 7.34804 6.08767 7.54712C6.2038 7.7464 6.60331 8.39797 7.19506 8.92554C7.83075 9.49234 8.383 9.73208 8.66343 9.85382C8.71851 9.87773 8.7631 9.89709 8.79578 9.91348C8.99486 10.013 9.11099 9.99643 9.22712 9.8634C9.34325 9.73068 9.72451 9.28245 9.85723 9.08337C9.98995 8.88407 10.1227 8.91725 10.3052 8.98361C10.4877 9.04997 11.4662 9.5316 11.6653 9.63114C11.7042 9.65056 11.7405 9.66808 11.7741 9.68433C11.913 9.75136 12.0068 9.79663 12.0469 9.8634C12.0967 9.94667 12.0967 10.345 11.9308 10.8098C11.7649 11.2746 10.9522 11.7228 10.5872 11.756C10.5521 11.7592 10.5172 11.7633 10.4813 11.7675C10.144 11.8072 9.71826 11.8573 8.19854 11.258C6.32867 10.5206 5.09574 8.69329 4.84098 8.31571C4.82008 8.28473 4.80576 8.26352 4.79822 8.25346L4.79604 8.25055C4.68884 8.1073 3.98541 7.16733 3.98541 6.19474C3.98541 5.27807 4.43601 4.79754 4.64332 4.57646C4.65749 4.56135 4.67052 4.54745 4.68219 4.53471C4.86458 4.33552 5.08025 4.28565 5.21297 4.28565C5.22022 4.28565 5.22748 4.28565 5.23473 4.28565C5.36006 4.28563 5.48475 4.28561 5.59443 4.29032Z" fill="white"/>
</svg>
